<svg width="43" height="50" viewBox="0 0 43 50" fill="none" xmlns="http://www.w3.org/2000/svg">
<path fill-rule="evenodd" clip-rule="evenodd" d="M23.8201 4.34918C27.1039 0.0211 31.6691 0 31.6691 0C31.6691 0 32.3481 4.06913 29.0859 7.989C25.6027 12.1745 21.6435 11.4897 21.6435 11.4897C21.6435 11.4897 20.9 8.19787 23.8201 4.34918ZM22.0611 14.3401C23.7504 14.3401 26.8857 12.0179 30.9668 12.0179C37.9916 12.0179 40.7551 17.0165 40.7551 17.0165C40.7551 17.0165 35.3501 19.78 35.3501 26.4854C35.3501 34.0497 42.0833 36.6566 42.0833 36.6566C42.0833 36.6566 37.3765 49.9043 31.0191 49.9043C28.0991 49.9043 25.829 47.9365 22.7524 47.9365C19.6171 47.9365 16.5058 49.9777 14.4793 49.9777C8.674 49.9778 1.33984 37.411 1.33984 27.3094C1.33984 17.3708 7.54773 12.1571 13.3705 12.1571C17.1558 12.1571 20.0932 14.3401 22.0611 14.3401Z" fill="#ADB8CC"/>
</svg>
