<svg width="99" height="20" viewBox="0 0 99 20" fill="none" xmlns="http://www.w3.org/2000/svg">
<path fill-rule="evenodd" clip-rule="evenodd" d="M8.76379 14.1726C10.2994 16.6903 13.1156 18.3795 16.25 18.3795C20.8811 18.3795 23.4305 14.3828 23.4305 14.3828L23.7587 15.4474C21.6146 18.2359 17.7843 19.9158 13.499 19.9158C8.56521 19.9158 4.31016 17.5621 2.35229 14.168C1.61512 12.8896 1.20361 11.4616 1.20361 9.9577C1.20361 4.45805 6.70786 0 13.4988 0C18.2971 0 22.1603 2.05522 24.1882 5.03363L16.1372 9.85469L20.7319 2.79947C19.4174 1.97274 17.8047 1.19858 16.1372 1.19858C11.4236 1.19858 7.54131 5.13204 7.54131 9.84549C7.54131 11.4248 7.98981 12.9087 8.76379 14.1726ZM30.321 14.1697C30.2968 14.3306 30.2847 14.493 30.2849 14.6556C30.2849 16.4448 31.7355 17.8956 33.5249 17.8956C35.3142 17.8956 36.7647 16.445 36.7647 14.6556C36.7648 14.4924 36.7526 14.3294 36.7284 14.168C36.4941 12.611 35.1491 11.4158 33.5247 11.4158C31.9004 11.4158 30.5553 12.611 30.321 14.1697ZM42.3431 14.168L43.9533 19.592H38.3049L37.1942 15.8779C36.4505 18.0181 33.9406 19.592 30.959 19.592C27.3916 19.592 24.4999 17.3389 24.4999 14.5591C24.4999 14.429 24.5063 14.2998 24.5187 14.168C24.7725 11.5735 27.5588 9.52619 30.959 9.52619C32.8889 9.52619 34.6211 10.1857 35.8047 11.2312L34.2661 6.08708H27.7833C27.7833 6.08708 28.8618 5.44018 33.645 3.69982C38.4282 1.95965 39.944 6.08708 39.944 6.08708L42.3431 14.168ZM60.4027 14.168V19.592H54.5907V7.67487C54.5907 6.79796 53.8798 6.08708 53.0029 6.08708C52.3483 6.08692 51.7607 6.48849 51.5231 7.09841V19.592H45.8188V6.08708H42.4921C42.4921 6.08708 47.1201 3.28336 48.7248 3.28336C50.2457 3.28336 51.3714 4.45186 51.5121 5.94035C53.7503 4.7331 55.9698 3.28336 57.4969 3.28336C59.0746 3.28336 60.3588 4.54071 60.4027 6.10832V14.168ZM69.3562 14.168L70.165 16.8414C70.1806 17.9873 71.1222 18.9039 72.2779 18.9039C73.4595 18.9039 74.4171 17.9464 74.4171 16.765C74.4171 16.6812 74.4123 16.5989 74.4029 16.5179L73.7153 14.168L71.3006 5.9154C71.1817 4.84602 70.2753 4.01469 69.1742 4.01469C68.0843 4.01469 67.0452 5.0331 66.9125 6.0869L69.3562 14.168ZM78.6057 14.169C77.505 17.5065 74.3615 19.9158 70.6549 19.9158C66.9482 19.9158 63.8045 17.5067 62.7034 14.168C62.4247 13.3218 62.2832 12.4364 62.2841 11.5455C62.2841 6.92266 66.0318 3.1754 70.6549 3.1754C75.2778 3.1754 79.0254 6.92266 79.0254 11.5455C79.0254 12.4618 78.8781 13.3439 78.6057 14.169ZM88.2289 14.168V19.592H82.5245V6.08708H79.3346C79.3346 6.08708 83.8257 3.28336 85.4307 3.28336C86.9518 3.28336 88.0772 4.45186 88.2183 5.94035C90.4565 4.7331 92.6757 3.28336 94.2027 3.28336C95.7808 3.28336 97.065 4.54071 97.1086 6.10832V19.592H91.2965V7.67487C91.2965 6.79796 90.5857 6.08708 89.7087 6.08708C89.0542 6.08692 88.4666 6.48849 88.2289 7.09841V14.168Z" fill="#ADB8CC"/>
</svg>
