<svg width="52" height="50" viewBox="0 0 52 50" fill="none" xmlns="http://www.w3.org/2000/svg">
<path fill-rule="evenodd" clip-rule="evenodd" d="M27.0192 0.0516357H25.4664C17.9632 0.464703 12.5221 3.35326 8.53559 7.33997C4.56734 11.3082 1.59984 16.6646 1.2222 24.2208C1.22641 24.2499 1.2168 24.2654 1.19714 24.2709V25.7736C1.59153 33.3587 4.54293 38.6598 8.53548 42.6793C12.528 46.6989 17.9143 49.5658 25.4664 49.9926H26.9941C34.6965 49.6136 39.7992 46.6353 43.9501 42.7044C47.9015 38.5661 50.9049 33.4799 51.2884 25.7736V24.2709C50.894 16.6858 47.9427 11.3845 43.9501 7.36503C39.9575 3.34559 34.5722 0.477554 27.0192 0.0516357ZM16.5251 5.13587C17.7347 4.5377 19.0693 4.03166 20.5574 3.63317C22.0568 3.23166 23.6998 3.01481 25.4416 2.93187C28.9846 2.76319 32.2927 3.54948 34.8339 4.60995C37.4529 5.70293 39.6753 7.21513 41.521 8.99289C45.2511 12.5858 48.0776 17.2972 48.4085 24.2457C48.5833 27.9137 47.7747 30.9417 46.7053 33.5628C44.591 38.7443 40.7762 42.4996 35.9356 44.9335C33.4657 46.1753 30.4846 46.9486 27.0443 47.1124C23.4577 47.2833 20.2727 46.5211 17.7023 45.4345C12.5044 43.2371 8.74844 39.6216 6.28138 34.7148C5.03213 32.2297 4.24131 29.3144 4.07749 25.8486C3.81766 20.3513 5.61183 16.159 7.68397 12.9C9.80697 9.56125 12.8433 6.9565 16.5251 5.13587ZM24.4744 18.8871C24.2956 18.7701 24.1167 18.6532 23.9387 18.5353C23.1879 19.0161 22.4394 19.4991 21.6909 19.982C20.2828 20.8906 18.8748 21.7992 17.4518 22.6929C16.9384 21.142 15.8318 19.8967 14.271 19.4119C13.1698 19.0699 11.8041 19.1146 10.3919 19.1607C9.54031 19.1886 8.67185 19.217 7.83429 19.1615V29.6055C8.69174 29.5658 9.54363 29.5899 10.3691 29.6133C11.2582 29.6385 12.1167 29.6629 12.9185 29.6055C15.3978 29.4278 16.8962 27.9235 17.5271 25.9238C18.5893 26.6166 19.6337 27.3274 20.6781 28.0382C21.7748 28.7846 22.8714 29.531 23.9888 30.2566C24.7069 29.7985 25.4296 29.3293 26.1532 28.8595C27.5407 27.9588 28.9316 27.0557 30.3003 26.2242V29.6055H37.3884V26.2743C36.9691 26.268 36.5401 26.2714 36.1111 26.2747C35.4125 26.2802 34.714 26.2856 34.0572 26.2495V19.1615H30.3003V22.7181C29.8354 23.0145 29.3717 23.3121 28.908 23.6097C27.6683 24.4054 26.4286 25.2011 25.1659 25.9739C25.0671 25.9094 24.964 25.8491 24.8609 25.7889C24.6795 25.6828 24.4981 25.5768 24.3396 25.4479C25.0499 24.9888 25.7527 24.5223 26.4556 24.0558C27.4137 23.4199 28.3718 22.784 29.3488 22.167C28.6491 21.6393 27.9028 21.1584 27.1447 20.6892C25.5853 21.6871 24.0199 22.6787 22.4545 23.6704C22.3231 23.7536 22.1917 23.8369 22.0603 23.9201C21.9325 23.8224 21.796 23.7334 21.6594 23.6445C21.523 23.5556 21.3866 23.4668 21.2589 23.3691C21.9585 22.9233 22.654 22.4735 23.3495 22.0236C24.3269 21.3913 25.3043 20.7591 26.293 20.1382C25.7119 19.6961 25.0932 19.2916 24.4744 18.8871ZM11.4157 26.2744V22.5176C11.4136 22.4821 11.4117 22.4467 11.4407 22.4425C12.5253 22.373 13.307 22.485 13.7699 23.0185C14.4637 23.8181 14.3054 25.3186 13.5195 25.9239C13.0431 26.2909 12.4427 26.2846 11.673 26.2766C11.5893 26.2757 11.5035 26.2749 11.4157 26.2744ZM42.1218 19.1615H38.365C38.3358 19.1657 38.3377 19.2008 38.3397 19.2362L38.3397 19.2366V29.6056H45.4278V26.2744H42.1218V19.1615Z" fill="#ADB8CC"/>
</svg>
