<svg width="100" height="20" viewBox="0 0 100 20" fill="none" xmlns="http://www.w3.org/2000/svg">
<path fill-rule="evenodd" clip-rule="evenodd" d="M54.0064 9.70974C53.1764 9.70974 52.578 9.98193 51.9713 10.2592V16.5339C52.5524 16.5893 52.8856 16.5893 53.4369 16.5893C55.4292 16.5893 55.7023 15.6769 55.7023 14.4029V11.4061C55.7023 10.4653 55.3901 9.70974 54.0064 9.70974ZM40.775 9.3673C39.3927 9.3673 39.0772 10.1262 39.0772 11.066V11.5941H42.4709V11.066C42.4709 10.1262 42.1555 9.3673 40.775 9.3673ZM15.1432 15.8983C15.1432 16.6418 15.494 17.028 16.2682 17.028C17.0987 17.028 17.5905 16.7572 18.1967 16.479V14.9906H16.3808C15.521 14.9906 15.1432 15.1506 15.1432 15.8983ZM66.8772 9.70974C65.4926 9.70974 65.0129 10.4653 65.0129 11.4061V14.8394C65.0129 15.7825 65.4926 16.5404 66.8772 16.5404C68.2581 16.5404 68.7416 15.7825 68.7416 14.8394V11.4061C68.7411 10.4653 68.2577 9.70974 66.8772 9.70974ZM8.35763 19.748H4.28743V9.89632H2.25372V6.50169H4.28789V4.46287C4.28789 1.69311 5.43572 0.0465088 8.69821 0.0465088H11.4145V3.44206H9.71669C8.4465 3.44206 8.36275 3.91664 8.36275 4.80205L8.35763 6.50123H11.4331L11.0734 9.89585H8.35763V19.748ZM22.2679 19.7736H18.8756L18.729 18.9156C17.1801 19.7736 15.7978 19.9127 14.8859 19.9127C12.3981 19.9127 11.0739 18.2507 11.0739 15.9523C11.0739 13.2407 12.6191 12.2729 15.3832 12.2729H18.1967V11.6867C18.1967 10.3025 18.0381 9.89632 15.9095 9.89632H12.4292L12.7693 6.50169H16.5734C21.2438 6.50169 22.2679 7.97707 22.2679 11.7141V19.7736ZM33.8034 10.1452C31.6924 9.78326 31.0862 9.7037 30.0705 9.7037C28.2461 9.7037 27.6948 10.1062 27.6948 11.6555V14.5863C27.6948 16.1356 28.2461 16.5399 30.0705 16.5399C31.0862 16.5399 31.6924 16.459 33.8034 16.0956V19.4069C31.9544 19.8215 30.7498 19.9304 29.7318 19.9304C25.3619 19.9304 23.6251 17.6324 23.6251 14.3127V11.9347C23.6251 8.61217 25.3619 6.31 29.7318 6.31C30.7498 6.31 31.9544 6.41934 33.8034 6.83576V10.1452ZM46.5406 14.3127H39.0768V14.5863C39.0768 16.1356 39.6286 16.5399 41.4524 16.5399C43.0921 16.5399 44.0929 16.459 46.2001 16.0956V19.4069C44.1678 19.8215 43.1088 19.9304 41.1151 19.9304C36.7448 19.9304 35.007 17.6324 35.007 14.3127V11.5936C35.007 8.68894 36.2963 6.31 40.7745 6.31C45.2528 6.31 46.5406 8.66149 46.5406 11.5936V14.3127ZM59.7716 14.3755C59.7716 17.584 58.8545 19.9243 53.2992 19.9243C51.2929 19.9243 50.1163 19.748 47.902 19.4074V1.06639L51.9708 0.387553V6.80319C52.8502 6.47657 53.9883 6.31047 55.024 6.31047C59.0932 6.31047 59.7711 8.1348 59.7711 11.0665V14.3755H59.7716ZM72.8146 14.4453C72.8146 17.2132 71.6719 19.8978 66.8907 19.8978C62.1073 19.8978 60.9431 17.2132 60.9431 14.4453V11.7728C60.9431 9.00346 62.1073 6.31838 66.8907 6.31838C71.6719 6.31838 72.8146 9.00346 72.8146 11.7728V14.4453ZM85.8487 14.4453C85.8487 17.2132 84.7046 19.8978 79.9244 19.8978C75.1409 19.8978 73.9768 17.2132 73.9768 14.4453V11.7728C73.9768 9.00346 75.1409 6.31838 79.9244 6.31838C84.7046 6.31838 85.8487 9.00346 85.8487 11.7728V14.4453ZM99.2248 19.748H94.8145L91.0844 13.5213V19.748H87.0142V1.06592L91.0844 0.387088V12.4139L94.8145 6.50169H99.2248L95.1527 12.9536L99.2248 19.748ZM79.9104 9.70974C78.5281 9.70974 78.0484 10.4653 78.0484 11.4061V14.8394C78.0484 15.7825 78.5281 16.5404 79.9104 16.5404C81.2909 16.5404 81.7794 15.7825 81.7794 14.8394V11.4061C81.7794 10.4653 81.2909 9.70974 79.9104 9.70974Z" fill="#ADB8CC"/>
</svg>
