<svg width="103" height="33" viewBox="0 0 103 33" fill="none" xmlns="http://www.w3.org/2000/svg">
<path fill-rule="evenodd" clip-rule="evenodd" d="M14.2405 0H13.3516C10.8358 0.150946 8.37033 0.972765 6.34094 2.46546C4.22769 3.97492 2.58405 6.13848 1.72869 8.58717C0.789469 11.2707 0.80624 14.2896 1.81255 16.9563C2.88595 19.8578 5.06628 22.3233 7.80009 23.7824C10.0811 25.0235 12.731 25.5099 15.2971 25.2584C17.947 25.0403 20.5467 23.9334 22.4251 22.0549C25.2428 19.405 26.1149 15.2288 25.5111 11.5222H13.7876V14.9772C15.6436 14.9884 17.4996 14.9847 19.3555 14.981H19.3559C20.2839 14.9791 21.2119 14.9772 22.14 14.9772C21.9387 16.688 21.3182 18.449 19.9764 19.6063C18.2657 21.2499 15.817 21.9711 13.469 21.8369C10.9532 21.753 8.52128 20.5455 6.92795 18.6167C5.26754 16.6376 4.54636 13.9542 4.89856 11.4048C5.21723 8.82197 6.69315 6.40683 8.87348 4.98123C10.8693 3.62271 13.4354 3.16987 15.817 3.67303C17.4271 3.97492 18.903 4.83028 20.1274 5.93722C20.5776 5.46781 21.0388 5.00934 21.5016 4.5493C21.849 4.20395 22.1973 3.85771 22.5425 3.50531C20.3622 1.3082 17.3265 0.0670873 14.2405 0ZM84.1957 0.872134H80.6065C80.6065 3.53388 80.6084 6.19563 80.6103 8.85676C80.614 14.1772 80.6177 19.4951 80.6065 24.8055C81.5001 24.8307 82.403 24.8275 83.3013 24.8244H83.3014H83.3014H83.3015H83.3016C83.6003 24.8233 83.8985 24.8223 84.1957 24.8223V0.872134ZM33.4945 9.17418C35.7084 8.75489 38.1068 9.2245 39.9349 10.5495C41.5953 11.7235 42.7525 13.5684 43.1048 15.581C43.5576 17.9123 42.9874 20.4616 41.4779 22.3065C39.851 24.3694 37.1843 25.4764 34.5847 25.3087C32.2031 25.1745 29.8886 23.9837 28.4797 22.0382C26.8864 19.8914 26.5007 16.9395 27.3728 14.4238C28.2449 11.7235 30.7104 9.66057 33.4945 9.17418ZM33.9977 12.3608C33.092 12.5956 32.2534 13.1156 31.6496 13.8535C30.0227 15.799 30.1234 18.9689 31.918 20.7803C32.941 21.8201 34.484 22.3065 35.9096 22.0214C37.2346 21.7866 38.3919 20.8977 39.0292 19.7237C40.1361 17.7278 39.8175 14.9772 38.1235 13.4175C37.0334 12.4111 35.44 11.9918 33.9977 12.3608ZM58.4677 11.17C56.5725 9.39222 53.8052 8.6878 51.2726 9.17418C48.5388 9.64379 46.1237 11.6396 45.2012 14.256C44.2788 16.8221 44.631 19.8411 46.2579 22.0382C47.7002 24.034 50.0986 25.2416 52.5305 25.3087C55.0798 25.4261 57.6627 24.3191 59.256 22.3065C61.8892 19.1199 61.5538 13.9374 58.4677 11.17ZM49.4277 13.8367C50.0315 13.1156 50.8701 12.5956 51.7758 12.3608C53.2014 11.9918 54.7947 12.3944 55.8849 13.4007C57.5956 14.9605 57.9143 17.711 56.8241 19.7237C56.1868 20.8977 55.0127 21.7698 53.7045 22.0214C52.2286 22.3233 50.6353 21.7866 49.6122 20.6964C47.8847 18.8683 47.8176 15.7487 49.4277 13.8367ZM66.3505 10.1469C68.2793 8.93938 70.8453 8.60394 72.925 9.64379C73.5791 9.92891 74.1158 10.4153 74.6358 10.9017C74.6442 10.6752 74.6442 10.4446 74.6442 10.2119C74.6442 9.97918 74.6442 9.7444 74.6525 9.50962C75.2144 9.51801 75.7763 9.51801 76.3402 9.51801C76.9042 9.51801 77.4702 9.51801 78.0404 9.52639V24.3191C78.0237 26.5498 77.4534 28.9146 75.8433 30.5415C74.0823 32.3361 71.382 32.8895 68.9501 32.5205C66.3505 32.1348 64.0863 30.2396 63.08 27.8412C63.7049 27.5391 64.3493 27.2759 64.997 27.0113L64.9971 27.0113L64.9972 27.0112C65.3923 26.8498 65.7888 26.6878 66.1828 26.5162C66.7698 27.8915 67.9606 29.0656 69.4533 29.3339C70.946 29.6023 72.6735 29.2333 73.6462 27.9922C74.6861 26.7175 74.6861 24.9732 74.6358 23.4135C73.8643 24.1682 72.9754 24.8391 71.902 25.0906C69.5707 25.7447 67.0046 24.9397 65.21 23.3631C63.3987 21.7866 62.3253 19.3547 62.4259 16.9395C62.4762 14.2057 64.0192 11.5726 66.3505 10.1469ZM69.8223 12.2937C68.7992 12.4615 67.8432 13.0317 67.1891 13.82C65.6125 15.6984 65.6125 18.7006 67.2059 20.5455C68.1115 21.6356 69.5707 22.2394 70.9795 22.0885C72.3045 21.9543 73.5288 21.1157 74.1829 19.9585C75.2899 17.9962 75.1054 15.3294 73.6127 13.6187C72.6902 12.5621 71.2143 12.0422 69.8223 12.2937ZM96.2043 9.47608C93.6215 8.48654 90.5187 9.12387 88.5061 11.0023C85.3697 13.9038 85.1014 19.3044 87.8855 22.5245C89.5795 24.5707 92.3636 25.577 94.98 25.2584C97.3448 25.0403 99.5419 23.665 100.85 21.7027C100.389 21.3925 99.9278 21.0865 99.4667 20.7804C99.0054 20.4743 98.5441 20.1682 98.0828 19.8578C97.7138 20.3274 97.328 20.8138 96.8417 21.1828C95.6173 22.1556 93.873 22.3401 92.4139 21.8201C91.374 21.4679 90.6025 20.5958 90.0994 19.6398C91.9187 18.8852 93.7339 18.1348 95.5491 17.3845C97.365 16.6338 99.1809 15.8831 101.001 15.1282C100.213 12.7298 98.653 10.3985 96.2043 9.47608ZM89.5124 16.9228C89.4956 15.9332 89.7304 14.9269 90.3006 14.1051C91.1896 12.7969 92.85 11.9415 94.4433 12.2267C95.4328 12.3776 96.4056 12.9478 96.8081 13.8871C94.3762 14.9101 91.9443 15.9165 89.5124 16.9228Z" fill="#ADB8CC"/>
</svg>
