<svg width="138" height="28" viewBox="0 0 138 28" fill="none" xmlns="http://www.w3.org/2000/svg">
<path d="M0 20.865V0.483249H3.44707V9.25279H12.1307V0.483249H15.5778V20.865H12.1307V12.2518H3.44707V20.865H0Z" fill="white"/>
<path d="M19.8463 2.34518C19.8463 1.6819 20.081 1.12758 20.5504 0.682234C21.0295 0.227411 21.5967 0 22.2519 0C22.9364 0 23.5134 0.227411 23.9828 0.682234C24.4522 1.13706 24.6869 1.69137 24.6869 2.34518C24.6869 2.98951 24.4522 3.53909 23.9828 3.99391C23.5134 4.44873 22.9364 4.67614 22.2519 4.67614C21.5869 4.67614 21.0198 4.44873 20.5504 3.99391C20.081 3.53909 19.8463 2.98951 19.8463 2.34518ZM20.6384 20.865V7.30558H23.9094V20.865H20.6384Z" fill="white"/>
<path d="M27.8992 14.0853C27.8992 13.1377 28.0753 12.2328 28.4273 11.3706C28.7793 10.4988 29.2683 9.73604 29.8941 9.08223C30.5298 8.41895 31.2876 7.8978 32.1677 7.51878C33.0478 7.13976 34.0159 6.95025 35.0721 6.95025C35.8935 6.95025 36.71 7.1445 37.5217 7.53299C38.3333 7.92149 38.9592 8.45685 39.3992 9.13909V7.30558H42.6703V21.533C42.6703 22.6795 42.4991 23.6602 42.1569 24.4751C41.8244 25.29 41.3306 25.958 40.6754 26.4792C40.03 27.0098 39.2428 27.3936 38.3138 27.6305C37.3946 27.8768 36.3531 28 35.1894 28C34.0257 28 33.0136 27.8389 32.1531 27.5168C31.3023 27.1946 30.5835 26.7729 29.9968 26.2518C29.4199 25.7306 28.9749 25.1337 28.662 24.4609C28.3491 23.7882 28.173 23.1059 28.1339 22.4142H31.4343C31.5125 23.1533 31.8646 23.7976 32.4904 24.3472C33.1163 24.8968 34.0159 25.1716 35.1894 25.1716C36.5096 25.1716 37.5412 24.8826 38.2844 24.3046C39.0276 23.736 39.3992 22.8122 39.3992 21.533V19.0315C38.9592 19.7137 38.3333 20.2491 37.5217 20.6376C36.71 21.0261 35.8935 21.2203 35.0721 21.2203C34.0062 21.2203 33.0332 21.0308 32.1531 20.6518C31.2827 20.2728 30.5298 19.7516 29.8941 19.0883C29.2683 18.425 28.7793 17.667 28.4273 16.8142C28.0753 15.9614 27.8992 15.0518 27.8992 14.0853ZM31.1703 14.0853C31.1703 14.6633 31.2632 15.2176 31.449 15.7482C31.6446 16.2694 31.9233 16.7242 32.2851 17.1127C32.6469 17.5012 33.0772 17.8139 33.5759 18.0508C34.0746 18.2782 34.6369 18.3919 35.2628 18.3919C35.8788 18.3919 36.4411 18.2782 36.9496 18.0508C37.4679 17.8139 37.9031 17.5012 38.2551 17.1127C38.6169 16.7242 38.8956 16.2694 39.0912 15.7482C39.2966 15.2176 39.3992 14.6633 39.3992 14.0853C39.3992 13.5073 39.2966 12.9577 39.0912 12.4365C38.8956 11.9059 38.6169 11.4464 38.2551 11.0579C37.9031 10.6694 37.4679 10.3614 36.9496 10.134C36.4411 9.89712 35.8788 9.77868 35.2628 9.77868C34.6467 9.77868 34.0844 9.89712 33.5759 10.134C33.0772 10.3614 32.6469 10.6694 32.2851 11.0579C31.9233 11.4464 31.6446 11.9012 31.449 12.4223C31.2632 12.9435 31.1703 13.4978 31.1703 14.0853Z" fill="white"/>
<path d="M46.9681 20.865V0.483249H50.2392V9.19594C50.6792 8.45685 51.2904 7.8978 52.0727 7.51878C52.855 7.13976 53.7645 6.95025 54.801 6.95025C55.818 6.95025 56.6737 7.11607 57.368 7.44772C58.0623 7.77936 58.6099 8.2247 59.0108 8.78376C59.3531 9.28596 59.5878 9.84975 59.7149 10.4751C59.842 11.091 59.9056 11.868 59.9056 12.8061V20.865H56.6346V13.8437C56.6346 13.2657 56.5808 12.7255 56.4732 12.2233C56.3754 11.7117 56.2092 11.2805 55.9745 10.9299C55.7496 10.5699 55.4415 10.2856 55.0504 10.0772C54.669 9.85922 54.1849 9.75025 53.5982 9.75025C52.4541 9.75025 51.6082 10.1435 51.0606 10.9299C50.513 11.7164 50.2392 12.6876 50.2392 13.8437V20.865H46.9681Z" fill="white"/>
<path d="M63.0153 14.0853C63.0153 13.1377 63.1913 12.2328 63.5434 11.3706C63.8954 10.4988 64.3844 9.73604 65.0102 9.08223C65.6458 8.41895 66.4037 7.8978 67.2838 7.51878C68.1639 7.13976 69.132 6.95025 70.1881 6.95025C71.0096 6.95025 71.8261 7.1445 72.6378 7.53299C73.4494 7.92149 74.0753 8.45685 74.5153 9.13909V7.30558H77.7864V21.533C77.7864 22.6795 77.6152 23.6602 77.273 24.4751C76.9405 25.29 76.4466 25.958 75.7915 26.4792C75.146 27.0098 74.3588 27.3936 73.4298 27.6305C72.5106 27.8768 71.4692 28 70.3055 28C69.1418 28 68.1297 27.8389 67.2691 27.5168C66.4184 27.1946 65.6996 26.7729 65.1129 26.2518C64.5359 25.7306 64.091 25.1337 63.7781 24.4609C63.4651 23.7882 63.2891 23.1059 63.25 22.4142H66.5504C66.6286 23.1533 66.9807 23.7976 67.6065 24.3472C68.2324 24.8968 69.132 25.1716 70.3055 25.1716C71.6256 25.1716 72.6573 24.8826 73.4005 24.3046C74.1437 23.736 74.5153 22.8122 74.5153 21.533V19.0315C74.0753 19.7137 73.4494 20.2491 72.6378 20.6376C71.8261 21.0261 71.0096 21.2203 70.1881 21.2203C69.1222 21.2203 68.1492 21.0308 67.2691 20.6518C66.3988 20.2728 65.6458 19.7516 65.0102 19.0883C64.3844 18.425 63.8954 17.667 63.5434 16.8142C63.1913 15.9614 63.0153 15.0518 63.0153 14.0853ZM66.2864 14.0853C66.2864 14.6633 66.3792 15.2176 66.565 15.7482C66.7606 16.2694 67.0393 16.7242 67.4011 17.1127C67.763 17.5012 68.1932 17.8139 68.692 18.0508C69.1907 18.2782 69.753 18.3919 70.3788 18.3919C70.9949 18.3919 71.5572 18.2782 72.0657 18.0508C72.584 17.8139 73.0191 17.5012 73.3712 17.1127C73.733 16.7242 74.0117 16.2694 74.2073 15.7482C74.4126 15.2176 74.5153 14.6633 74.5153 14.0853C74.5153 13.5073 74.4126 12.9577 74.2073 12.4365C74.0117 11.9059 73.733 11.4464 73.3712 11.0579C73.0191 10.6694 72.584 10.3614 72.0657 10.134C71.5572 9.89712 70.9949 9.77868 70.3788 9.77868C69.7628 9.77868 69.2005 9.89712 68.692 10.134C68.1932 10.3614 67.763 10.6694 67.4011 11.0579C67.0393 11.4464 66.7606 11.9012 66.565 12.4223C66.3792 12.9435 66.2864 13.4978 66.2864 14.0853Z" fill="white"/>
<path d="M82.0842 20.865V7.30558H85.3552V9.4802C85.5117 9.16751 85.7366 8.87377 86.03 8.59898C86.3233 8.31472 86.6607 8.06362 87.0421 7.84569C87.4333 7.61827 87.8537 7.44298 88.3036 7.3198C88.7632 7.18714 89.2228 7.12081 89.6824 7.12081C90.2007 7.12081 90.631 7.19188 90.9732 7.33401V10.2335C90.7092 10.1766 90.4892 10.1387 90.3131 10.1198C90.1469 10.1008 89.9366 10.0914 89.6824 10.0914C88.284 10.0914 87.2132 10.4846 86.47 11.2711C85.7268 12.0575 85.3552 13.3036 85.3552 15.0091V20.865H82.0842Z" fill="white"/>
<path d="M92.1467 14.0853C92.1467 13.0809 92.2983 12.1428 92.6014 11.2711C92.9143 10.3898 93.3593 9.63181 93.9362 8.99695C94.523 8.35262 95.2466 7.85042 96.1071 7.49036C96.9677 7.13029 97.9505 6.95025 99.0555 6.95025C99.9551 6.95025 100.801 7.1066 101.593 7.41929C102.385 7.73198 103.075 8.16311 103.661 8.71269C104.258 9.26227 104.717 9.9066 105.04 10.6457C105.373 11.3848 105.539 12.1902 105.539 13.0619C105.539 13.2988 105.534 13.5783 105.524 13.9005C105.514 14.2132 105.47 14.5922 105.392 15.0376H95.4764C95.4764 15.5208 95.5449 15.9804 95.6818 16.4162C95.8284 16.8426 96.0436 17.2169 96.3272 17.5391C96.6205 17.8518 96.997 18.1029 97.4566 18.2924C97.926 18.4724 98.4883 18.5624 99.1435 18.5624C99.6031 18.5624 99.9991 18.5151 100.332 18.4203C100.664 18.3256 100.943 18.2024 101.168 18.0508C101.402 17.8897 101.593 17.7002 101.74 17.4822C101.896 17.2548 102.023 17.0227 102.121 16.7858H105.422C105.304 17.3638 105.079 17.9228 104.747 18.4629C104.414 18.9936 103.984 19.4626 103.456 19.8701C102.928 20.2775 102.302 20.6044 101.578 20.8508C100.855 21.0971 100.043 21.2203 99.1435 21.2203C97.9602 21.2203 96.9335 21.0213 96.0631 20.6234C95.1928 20.2254 94.4643 19.6948 93.8775 19.0315C93.3006 18.3682 92.8654 17.6102 92.5721 16.7574C92.2885 15.9046 92.1467 15.0139 92.1467 14.0853ZM95.5057 12.6924H102.356C102.356 11.7448 102.038 10.9915 101.402 10.4325C100.777 9.87344 99.9649 9.59391 98.9675 9.59391C98.0091 9.59391 97.1926 9.85922 96.5179 10.3898C95.8431 10.911 95.5057 11.6785 95.5057 12.6924Z" fill="white"/>
<path d="M108.106 14.0853C108.106 13.0809 108.257 12.1428 108.561 11.2711C108.874 10.3898 109.318 9.63181 109.895 8.99695C110.482 8.35262 111.206 7.85042 112.066 7.49036C112.927 7.13029 113.91 6.95025 115.015 6.95025C115.914 6.95025 116.76 7.1066 117.552 7.41929C118.344 7.73198 119.034 8.16311 119.621 8.71269C120.217 9.26227 120.677 9.9066 120.999 10.6457C121.332 11.3848 121.498 12.1902 121.498 13.0619C121.498 13.2988 121.493 13.5783 121.483 13.9005C121.474 14.2132 121.43 14.5922 121.351 15.0376H111.436C111.436 15.5208 111.504 15.9804 111.641 16.4162C111.788 16.8426 112.003 17.2169 112.286 17.5391C112.58 17.8518 112.956 18.1029 113.416 18.2924C113.885 18.4724 114.447 18.5624 115.103 18.5624C115.562 18.5624 115.958 18.5151 116.291 18.4203C116.623 18.3256 116.902 18.2024 117.127 18.0508C117.362 17.8897 117.552 17.7002 117.699 17.4822C117.855 17.2548 117.983 17.0227 118.08 16.7858H121.381C121.263 17.3638 121.038 17.9228 120.706 18.4629C120.374 18.9936 119.943 19.4626 119.415 19.8701C118.887 20.2775 118.261 20.6044 117.538 20.8508C116.814 21.0971 116.002 21.2203 115.103 21.2203C113.919 21.2203 112.893 21.0213 112.022 20.6234C111.152 20.2254 110.423 19.6948 109.837 19.0315C109.26 18.3682 108.825 17.6102 108.531 16.7574C108.248 15.9046 108.106 15.0139 108.106 14.0853ZM111.465 12.6924H118.315C118.315 11.7448 117.997 10.9915 117.362 10.4325C116.736 9.87344 115.924 9.59391 114.927 9.59391C113.968 9.59391 113.152 9.85922 112.477 10.3898C111.802 10.911 111.465 11.6785 111.465 12.6924Z" fill="white"/>
<path d="M125.062 20.865V7.30558H128.334V9.19594C128.774 8.45685 129.385 7.8978 130.167 7.51878C130.949 7.13976 131.859 6.95025 132.895 6.95025C133.912 6.95025 134.768 7.11607 135.462 7.44772C136.157 7.77936 136.704 8.2247 137.105 8.78376C137.447 9.28596 137.682 9.84975 137.809 10.4751C137.936 11.091 138 11.868 138 12.8061V20.865H134.729V13.8437C134.729 13.2657 134.675 12.7255 134.568 12.2233C134.47 11.7117 134.304 11.2805 134.069 10.9299C133.844 10.5699 133.536 10.2856 133.145 10.0772C132.763 9.85922 132.279 9.75025 131.693 9.75025C130.548 9.75025 129.703 10.1435 129.155 10.9299C128.607 11.7164 128.334 12.6876 128.334 13.8437V20.865H125.062Z" fill="white"/>
</svg>
