<svg width="63" height="63" viewBox="0 0 63 63" fill="none" xmlns="http://www.w3.org/2000/svg">
<path d="M40.0017 26.9225L50.9929 15.8721L55.4996 15.6353L61.0002 6.27214L56.7395 2L47.3915 7.50544L47.1553 12.0242L36.1641 23.0647" stroke="#8ACF3F" stroke-width="2" stroke-miterlimit="10"/>
<path d="M37.9346 26.2715L36.6358 24.9593C34.1758 22.4828 32.0995 20.253 31.8831 22.0684C31.8831 22.0684 31.9519 25.3441 26.2743 31.037C24.6802 32.6353 22.7909 34.135 20.7147 34.796C17.0345 35.7038 11.9276 36.9962 7.4799 40.5975C7.29294 40.7455 3.88831 43.7843 3.33727 44.4947C2.78623 45.2051 -2.41912 51.0262 4.76407 58.2287C11.9473 65.4312 17.7528 60.202 18.4613 59.6593C19.1698 59.1068 22.1907 55.693 22.3481 55.5056C25.9397 51.046 27.2287 45.9253 28.134 42.2353C28.7933 40.1535 30.289 38.2591 31.8831 36.6608C37.5607 30.9679 40.8276 31.037 40.8276 31.037C42.6382 30.8199 40.4242 28.7381 37.9543 26.2715H37.9346Z" stroke="#8ACF3F" stroke-width="2" stroke-linecap="round" stroke-linejoin="round"/>
<path d="M5.74805 42.5608L20.3703 57.2222" stroke="#8ACF3F" stroke-width="2" stroke-linecap="round" stroke-linejoin="round"/>
</svg>
