<svg width="63" height="59" viewBox="0 0 63 59" fill="none" xmlns="http://www.w3.org/2000/svg">
<path d="M16.7993 31.774C14.6042 28.6064 13.3208 24.7662 13.3208 20.6253C13.3297 9.78625 22.1101 1 32.9528 1C43.7956 1 52.5848 9.78625 52.5848 20.6164C52.5848 25.0051 51.1421 29.0488 48.708 32.3226" stroke="#8ACF3F" stroke-width="2" stroke-linecap="round" stroke-linejoin="round"/>
<path d="M15.5513 12.1842L21.0125 17.555L20.1273 22.2003L23.3403 24.085L24.9207 29.633C25.1657 30.493 26.33 30.6237 26.7595 29.8394L31.4784 21.2227C31.7482 20.7301 31.5595 20.1121 31.0607 19.8541L25.3319 16.8914L21.0125 17.2277L20.5699 13.6884L26.1019 9.92789L25.8806 2.74316" stroke="#8ACF3F" stroke-width="2" stroke-linecap="round" stroke-linejoin="round"/>
<path d="M52.4697 17.8647L47.5395 25.0671L46.8209 26.1239C46.3325 26.8422 45.2235 26.639 45.0214 25.7942L43.6096 19.8909L41.3791 19.7847C41.3791 19.7847 35.9621 17.7939 40.609 13.9272L46.2473 13.2636L48.4601 8.9457L41.2729 9.72434L39.299 8.50329L41.2286 3.07935" stroke="#8ACF3F" stroke-width="2" stroke-linecap="round" stroke-linejoin="round"/>
<path d="M41 42L55.0635 34.1452C57.1435 33.0303 59.5864 33.4727 60.5866 35.3485C61.5868 37.2244 60.7106 39.6665 58.6305 40.7813L36.3077 52.7441L35.1305 53.0361L14.3125 53.6024C14.3125 53.6024 11.6305 54.3545 8.40869 57.9999" stroke="#8ACF3F" stroke-width="2" stroke-linecap="round" stroke-linejoin="round"/>
<path d="M1 47.0547L10.4443 38.3658C15.0557 35.2512 20.5346 36.9678 20.5346 36.9678C23.1812 37.6668 28.1024 37.826 28.1024 37.826H36.2721C38.7062 37.826 40.6977 39.5603 40.6977 41.6838C40.6977 43.8074 38.7062 45.5505 36.2721 45.5505H24.9691" stroke="#8ACF3F" stroke-width="2" stroke-miterlimit="10" stroke-linecap="round"/>
</svg>
