<svg width="62" height="56" viewBox="0 0 62 56" fill="none" xmlns="http://www.w3.org/2000/svg">
<path d="M56.3079 31.7444H51.1152" stroke="#8ACF3F" stroke-width="2" stroke-linecap="round" stroke-linejoin="round"/>
<path d="M53.4568 39.769H49.7446" stroke="#8ACF3F" stroke-width="2" stroke-linecap="round" stroke-linejoin="round"/>
<path d="M16.644 50.3883C31.7359 55.2471 49.7225 54.9613 49.7225 54.9613C56.6166 54.9613 55.1582 47.7939 50.1644 47.7939H48.1757" stroke="#8ACF3F" stroke-width="2" stroke-linecap="round" stroke-linejoin="round"/>
<path d="M16.644 26.1604C16.644 26.1604 30.8742 15.5853 29.8577 4.52646C29.5 -3.53527 45.5 1.9646 36.3983 23.72H56.7492C62.428 23.72 62.4059 31.7447 56.7492 31.7447H56.3073C62.0302 31.7447 61.8756 39.7695 56.3073 39.7695H53.4568C59.1356 39.7695 59.1135 47.7943 53.4568 47.7943H50.1644" stroke="#8ACF3F" stroke-width="2" stroke-linecap="round" stroke-linejoin="round"/>
<path d="M16.4675 21.4993H1V54.4778H16.4675V21.4993Z" stroke="#8ACF3F" stroke-width="2" stroke-linecap="round" stroke-linejoin="round"/>
</svg>
