<svg width="62" height="62" viewBox="0 0 62 62" fill="none" xmlns="http://www.w3.org/2000/svg">
<path d="M37.8351 16.9239C38.5045 16.2545 39.6359 16.3012 40.3633 17.0285C43.6365 20.3018 43.8457 25.3968 40.8332 28.4094L39.8515 29.391C39.4247 29.8178 39.1849 30.3967 39.1849 31.0003C39.1849 31.6039 39.4247 32.1828 39.8515 32.6096L45.0768 37.8349C45.7463 38.5044 45.6996 39.6357 44.9722 40.3631C41.699 43.6363 36.604 43.8455 33.5914 40.833L32.6098 39.8513C32.183 39.4245 31.6041 39.1847 31.0005 39.1847C30.3969 39.1847 29.818 39.4245 29.3912 39.8513L24.1659 45.0766C23.4964 45.7461 22.3651 45.6994 21.6377 44.972C18.3644 41.6988 18.1552 36.6038 21.1678 33.5912L22.1495 32.6096C22.5763 32.1828 22.816 31.6039 22.816 31.0003C22.816 30.3967 22.5763 29.8178 22.1495 29.391L16.9241 24.1657C16.2547 23.4962 16.3013 22.3649 17.0287 21.6375C20.302 18.3642 25.397 18.155 28.4096 21.1676L29.3912 22.1493C29.818 22.5761 30.3969 22.8159 31.0005 22.8159C31.6041 22.8159 32.183 22.5761 32.6098 22.1493L37.8351 16.9239Z" stroke="#8ACF3F" stroke-width="2" stroke-linecap="round" stroke-linejoin="round"/>
<path d="M25.8793 16.2137C25.8793 15.267 26.7123 14.5 27.741 14.5C32.3701 14.5 36.1207 17.9548 36.1207 22.2152V23.6034C36.1207 24.207 36.3605 24.7859 36.7873 25.2127C37.2141 25.6395 37.793 25.8793 38.3966 25.8793H45.7863C46.733 25.8793 47.5 26.7123 47.5 27.741C47.5 32.3701 44.0452 36.1207 39.7848 36.1207H38.3966C37.793 36.1207 37.2141 36.3605 36.7873 36.7873C36.3605 37.2141 36.1207 37.793 36.1207 38.3966V45.7863C36.1207 46.733 35.2877 47.5 34.259 47.5C29.6299 47.5 25.8793 44.0452 25.8793 39.7848V38.3966C25.8793 37.793 25.6395 37.2141 25.2127 36.7873C24.7859 36.3605 24.207 36.1207 23.6034 36.1207H16.2137C15.267 36.1207 14.5 35.2877 14.5 34.259C14.5 29.6299 17.9548 25.8793 22.2152 25.8793H23.6034C24.207 25.8793 24.7859 25.6395 25.2127 25.2127C25.6395 24.7859 25.8793 24.207 25.8793 23.6034V16.2137Z" fill="white" stroke="#8ACF3F" stroke-width="2" stroke-linecap="round" stroke-linejoin="round"/>
<path d="M34 31C34 31.7956 33.6839 32.5587 33.1213 33.1213C32.5587 33.6839 31.7956 34 31 34C30.2044 34 29.4413 33.6839 28.8787 33.1213C28.3161 32.5587 28 31.7956 28 31C28 30.2044 28.3161 29.4413 28.8787 28.8787C29.4413 28.3161 30.2044 28 31 28C31.7956 28 32.5587 28.3161 33.1213 28.8787C33.6839 29.4413 34 30.2044 34 31Z" stroke="#8ACF3F" stroke-width="2" stroke-linecap="round" stroke-linejoin="round"/>
<path d="M25.6303 2.97774C28.7246 0.340755 33.2755 0.340755 36.3699 2.97774L38.9399 5.16807C40.2662 6.29806 41.9147 6.98098 43.6514 7.11956L47.0176 7.38819C51.0703 7.71157 54.2884 10.9297 54.612 14.9823L54.8805 18.3486C55.0191 20.0852 55.7019 21.7339 56.832 23.0601L59.0222 25.6302C61.6593 28.7245 61.6593 33.2754 59.0222 36.3697L56.832 38.9402C55.7019 40.266 55.0191 41.915 54.8805 43.6513L54.612 47.0175C54.2884 51.0702 51.0703 54.2887 47.0176 54.6118L43.6514 54.8804C41.9147 55.019 40.2662 55.7022 38.9399 56.8318L36.3699 59.0225C33.2755 61.6591 28.7246 61.6591 25.6303 59.0225L23.0598 56.8318C21.7339 55.7022 20.0852 55.019 18.3486 54.8804L14.9823 54.6118C10.9297 54.2887 7.71158 51.0702 7.38815 47.0179L7.11956 43.6513C6.98098 41.915 6.29806 40.266 5.16807 38.9402L2.97774 36.3697C0.340755 33.2754 0.340755 28.7245 2.97774 25.6302L5.16807 23.0601C6.29806 21.7339 6.98094 20.0852 7.11956 18.3486L7.38815 14.9823C7.71158 10.9297 10.9297 7.71157 14.9823 7.38819L18.3486 7.11956C20.0852 6.98098 21.7339 6.29806 23.0598 5.16807L25.6303 2.97774Z" stroke="#8ACF3F" stroke-width="2" stroke-linecap="round" stroke-linejoin="round"/>
</svg>
