<svg width="103" height="16" viewBox="0 0 103 16" fill="none" xmlns="http://www.w3.org/2000/svg">
<path fill-rule="evenodd" clip-rule="evenodd" d="M94.2296 9.96776C94.697 8.4549 94.697 7.56303 94.2492 6.9814C93.915 6.58063 93.4278 6.38024 92.6892 6.38024C91.0429 6.38024 90.1312 7.31544 89.3963 9.65722C88.9248 11.1936 88.9248 12.0855 89.3727 12.6633C89.6831 13.0444 90.1977 13.2448 90.9326 13.2448C92.5555 13.2448 93.4945 12.3294 94.2296 9.96776ZM100.666 6.58063C101.31 7.38624 101.448 8.4079 101.066 9.65742C99.9977 13.1113 95.9662 15.0917 89.9935 15.0917C86.4296 15.0917 84.0053 14.4002 82.9324 13.0641C82.2881 12.2626 82.178 11.2173 82.5553 9.96776C83.6239 6.5139 87.6555 4.53353 93.6281 4.53353C97.1685 4.53353 99.6205 5.24475 100.666 6.58063M78.3901 4.86738H84.7163C84.3353 5.37831 77.4549 14.6241 77.3411 14.7813H67.6315C67.5844 14.4905 66.4253 5.22502 66.382 4.86738H72.3312C72.3742 5.15819 73.1995 11.8185 73.1995 11.8185C73.1995 11.8185 78.2997 5.00103 78.3901 4.86738ZM58.7629 9.96776C59.2305 8.4549 59.2542 7.56303 58.7864 6.9814C58.4721 6.58063 57.9615 6.38024 57.2501 6.38024C55.5999 6.38024 54.6647 7.31544 53.9532 9.65722C53.4621 11.1936 53.4621 12.0855 53.9296 12.6633C54.2401 13.0444 54.7549 13.2448 55.466 13.2448C57.1165 13.2448 58.0517 12.3294 58.7629 9.96776ZM65.2228 6.58063C65.871 7.38624 66.0048 8.4079 65.6039 9.65742C64.5353 13.1113 60.4998 15.0917 54.5546 15.0917C50.9907 15.0917 48.5623 14.4002 47.4896 13.0641C46.8452 12.2626 46.7117 11.2173 47.0889 9.96776C48.1813 6.5139 52.2127 4.53353 58.1618 4.53353C61.7256 4.53353 64.154 5.24475 65.2228 6.58063ZM46.6015 6.09359C46.8451 6.40403 46.9788 6.71428 46.9119 7.16225L44.4404 14.801H37.8902L40.2087 7.67328C40.295 7.36283 40.1851 7.09562 40.0082 6.89523C39.6938 6.51409 39.0259 6.27047 36.7312 6.42753C36.7312 6.42753 34.0161 14.6911 33.9688 14.801H27.4224C27.4855 14.6241 30.4952 5.4256 30.5384 5.33517C32.8137 4.9344 35.8195 4.55713 38.9394 4.55713C43.1711 4.55722 45.7528 5.06805 46.6015 6.09359ZM22.6993 8.18798C22.8329 7.56322 22.6325 7.09562 22.4084 6.8284C22.1648 6.51409 21.6265 6.11322 20.5146 6.11322C18.935 6.11322 17.7522 6.87163 17.3513 8.14078L16.5733 11.0603L22.6993 8.18798ZM28.2003 8.16428C28.2003 8.63188 28.0904 9.03275 28 9.20954C27.7996 9.25674 16.3731 11.7951 16.3731 11.7951C16.3731 11.7951 16.259 12.3532 16.6834 12.6438C17.2414 13.0447 17.8426 13.1547 18.8643 13.1979C21.383 13.308 24.7935 11.8384 25.7486 11.4179C25.5953 11.9051 24.6129 14.0467 24.5697 14.1566C24.1452 14.3138 21.7837 15.0682 17.1509 15.0918C15.3905 15.1154 12.251 14.8915 10.9583 13.2647C10.3139 12.4632 10.2001 11.3275 10.644 9.90123C11.6931 6.49436 15.6147 4.53372 21.3593 4.53372C24.5697 4.53372 26.664 5.13488 27.6228 6.3137C28 6.8048 28.2003 7.42956 28.2003 8.16428ZM5.90121 0.0343018H12.3848C12.2512 0.454805 7.88574 14.5337 7.81495 14.7813H1.33545C1.46891 14.3569 5.83439 0.278015 5.90121 0.0343018Z" fill="#ADB8CC"/>
</svg>
