<svg width="368" height="125" viewBox="0 0 368 125" fill="none" xmlns="http://www.w3.org/2000/svg">
<path fill-rule="evenodd" clip-rule="evenodd" d="M359.05 0.188057C357.081 0.65093 355.01 2.37671 354.104 4.31033C353.693 5.186 353.639 5.53109 353.636 7.28586C353.633 9.16653 353.664 9.33367 354.221 10.4664C354.968 11.9863 356.533 13.4797 357.988 14.0607C358.83 14.3966 359.374 14.4768 360.828 14.4789C362.512 14.4813 362.703 14.4429 363.835 13.8763C366.724 12.4308 368.368 9.37761 367.93 6.27402C367.339 2.08638 363.159 -0.777852 359.05 0.188057ZM48.1824 0.789432C46.2627 1.39009 44.4734 3.04058 43.3892 5.2105C41.3884 9.21534 42.5361 12.4472 46.0598 12.7305C46.6935 12.7814 47.5943 12.7267 48.0616 12.6089L48.9111 12.3946L49.6964 13.2153C50.1284 13.6667 50.5853 14.0361 50.7117 14.0361C51.0263 14.0361 51.9082 13.0894 51.9082 12.7519C51.9082 12.6012 51.7058 12.2876 51.4585 12.0549C51.2112 11.8222 51.009 11.5447 51.0092 11.4382C51.0094 11.3316 51.3371 10.9357 51.7377 10.5582C54.3684 8.07959 55.3247 3.75146 53.661 1.85404C52.7811 0.850668 51.9616 0.526297 50.3415 0.540165C49.5708 0.546829 48.5994 0.658855 48.1824 0.789432ZM176.966 0.789432C173.307 1.93473 170.404 6.88062 171.36 10.3439C171.643 11.3708 172.696 12.3162 173.87 12.5983C175.695 13.0367 179.071 12.4409 180.392 11.4474C180.776 11.1592 181.099 10.5294 181.699 8.90556C182.138 7.71812 182.457 6.64414 182.409 6.51915C182.345 6.35129 181.684 6.29149 179.893 6.29149H177.464L177.178 6.84406C177.022 7.1479 176.918 7.57331 176.949 7.78962C176.999 8.1392 177.13 8.18855 178.138 8.23646C179.416 8.29716 179.609 8.49311 179.248 9.36501C178.962 10.0572 178.347 10.3732 176.798 10.6241C175.139 10.8927 174.26 10.6175 173.806 9.68632C173.527 9.11412 173.51 8.87098 173.679 7.81231C174.181 4.66622 176.203 2.50927 178.65 2.50927C179.896 2.50927 180.466 2.79347 180.89 3.62538C181.229 4.29142 181.266 4.31033 182.214 4.31033C182.75 4.31033 183.241 4.22622 183.304 4.12356C183.546 3.73183 183.161 2.46586 182.609 1.83603C181.763 0.87156 180.864 0.534582 179.163 0.544127C178.372 0.54863 177.383 0.658855 176.966 0.789432ZM77.8635 0.933336C77.4912 1.42845 73.6354 12.0599 73.7343 12.3182C73.8671 12.6647 75.5202 12.7067 75.7805 12.3701C76.1343 11.913 79.9962 1.22385 79.8992 0.970619C79.7715 0.637422 78.1089 0.606984 77.8635 0.933336ZM82.2139 1.25158C82.0544 1.56047 81.949 1.99002 81.9798 2.20633C82.0265 2.53484 82.1699 2.60814 82.8546 2.65281C83.8327 2.71657 84.3031 2.32015 84.3461 1.39549C84.3739 0.798617 84.3732 0.798257 83.439 0.744225C82.5519 0.692715 82.4891 0.71883 82.2139 1.25158ZM136.197 1.10408C136.049 1.33209 135.709 2.12654 135.441 2.86948C134.772 4.72511 134.679 4.804 133.838 4.2327C132.902 3.59639 131.64 3.60017 130.351 4.24333C127.487 5.67229 125.865 10.8469 127.839 12.2546C128.638 12.8243 129.896 12.9046 130.919 12.4513C131.631 12.1361 131.787 12.1203 132.071 12.3351C132.251 12.4718 132.74 12.5864 133.158 12.5894C133.754 12.594 133.974 12.5075 134.177 12.19C134.625 11.4865 138.258 1.53561 138.205 1.15847C138.164 0.866157 137.995 0.787991 137.31 0.743865C136.594 0.697578 136.425 0.75215 136.197 1.10408ZM154.609 0.981605C154.484 1.13199 154.373 1.55758 154.362 1.92716L154.342 2.59932H155.323C156.291 2.59932 156.309 2.58941 156.559 1.93076C156.932 0.950087 156.766 0.708204 155.718 0.708204C155.148 0.708204 154.755 0.805101 154.609 0.981605ZM23.8933 1.11164C23.793 1.23646 23.3431 2.35167 22.8938 3.5899C22.1344 5.68274 18.962 14.3545 15.2173 24.5723C14.3461 26.9497 13.2284 29.989 12.7334 31.3263C12.2386 32.6635 11.6184 34.3655 11.3553 35.1085C11.0921 35.8514 10.3203 37.9587 9.64006 39.7912C7.59175 45.3102 3.88796 55.4081 3.06723 57.7118C2.64364 58.9005 1.76032 61.3253 1.10435 63.1C0.448203 64.8748 -0.0471491 66.4351 0.00357307 66.5671C0.134336 66.9086 15.9764 66.9232 16.2541 66.582C16.3548 66.4583 16.6813 65.668 16.9793 64.826C17.2775 63.984 18.0878 61.7552 18.7799 59.8731C19.4721 57.991 20.4554 55.3164 20.9651 53.9296C21.4749 52.5428 22.4469 49.9087 23.125 48.0761C23.8032 46.2435 24.5997 44.0553 24.895 43.2133C26.0046 40.0502 28.2019 34.2915 28.3823 34.0738C28.5294 33.8962 31.3643 33.8477 41.5936 33.8477C53.0647 33.8477 54.6299 33.8803 54.722 34.1208C54.8297 34.4017 54.6488 34.9347 51.9995 42.1326C51.1428 44.4605 49.6442 48.5534 48.6693 51.228C47.6945 53.9026 46.0499 58.3962 45.0148 61.2138C43.9797 64.0314 43.1733 66.4426 43.223 66.572C43.2953 66.7605 44.8929 66.8072 51.2937 66.8072H59.2744L59.5278 66.4019C59.7607 66.0291 60.6451 63.6953 62.4798 58.6123C63.3492 56.2034 67.4461 45.0323 69.0519 40.6918C72.2008 32.1807 72.3859 31.5571 72.5262 28.9849C72.7829 24.2783 70.7648 20.5759 66.927 18.7122C64.1358 17.3567 64.8173 17.4091 48.8954 17.3259C35.4472 17.2555 34.641 17.2335 34.641 16.9349C34.641 16.7609 35.8658 13.3021 37.3624 9.24866C38.8593 5.19537 40.0935 1.67627 40.1054 1.42863L40.127 0.978363L32.1015 0.931536C25.8176 0.894794 24.0363 0.933877 23.8933 1.11164ZM88.0328 1.76525C87.0329 2.33582 86.4424 2.84606 86.4424 3.13964C86.4424 3.42889 85.8936 3.89806 85.4629 3.97713C85.2704 4.01243 84.9515 4.31807 84.7542 4.65631L84.3955 5.27137L84.7894 5.53325C85.3252 5.8895 85.2931 6.17929 84.4793 8.32201C83.3568 11.2781 83.3233 12.0077 84.2878 12.5071C84.5727 12.6546 85.2019 12.7753 85.6861 12.7753C86.6946 12.7753 87.1556 12.4155 87.2149 11.5816C87.2441 11.1736 87.1692 11.0528 86.8602 11.0087C85.9884 10.884 85.9818 10.5602 86.8043 8.31319C87.688 5.89904 87.7763 5.75118 88.3332 5.75118C88.929 5.75118 89.5066 5.19933 89.5512 4.58751C89.5809 4.18029 89.505 4.03783 89.2303 3.9847C88.5988 3.86258 88.5538 3.6461 88.9438 2.60292C89.2942 1.66529 89.3113 1.21862 88.9949 1.26779C88.9265 1.27842 88.4936 1.50229 88.0328 1.76525ZM362.474 1.87709C364.336 2.43074 365.726 3.93192 366.241 5.94461C366.578 7.25993 366.474 8.31031 365.88 9.62346C365.292 10.9208 364.617 11.6354 363.367 12.2858C362.398 12.7894 362.094 12.8578 360.828 12.8571C358.95 12.856 357.827 12.3733 356.616 11.047C355.583 9.91469 355.162 8.82235 355.162 7.27271C355.162 3.36567 358.7 0.754851 362.474 1.87709ZM51.134 2.86155C51.8495 3.29849 52.1853 4.29358 52.0107 5.46013C51.8529 6.51339 50.7691 8.69231 50.1671 9.16653L49.7044 9.53088L49.0913 8.99183C48.3952 8.37983 48.033 8.32273 47.5606 8.75084C47.1617 9.11232 47.1369 9.59068 47.5015 9.89362C47.8788 10.2072 47.8374 10.5687 47.4086 10.705C46.8496 10.8828 45.8557 10.4707 45.3276 9.84229C44.8923 9.3243 44.8581 9.17211 44.9353 8.09832C45.0833 6.04187 46.4888 3.81269 48.1644 2.97664C49.2881 2.41597 50.3374 2.37527 51.134 2.86155ZM357.772 3.58612C357.712 3.6832 357.748 3.92094 357.852 4.11473C358.159 4.68981 358.096 9.91307 357.776 10.3702C357.631 10.5773 357.564 10.7979 357.626 10.8606C357.763 10.9975 360.278 11.0144 360.413 10.8792C360.465 10.8269 360.352 10.4692 360.162 10.0844C359.746 9.24289 359.769 7.8224 360.198 7.8224C360.347 7.8224 360.798 8.40558 361.202 9.11862C362.222 10.9173 362.282 10.9743 363.177 10.9743C364.058 10.9743 364.318 10.7329 363.917 10.2875C363.385 9.69514 362.373 7.71974 362.47 7.46471C362.525 7.32224 362.725 7.15637 362.915 7.09603C363.105 7.03569 363.38 6.75311 363.528 6.46782C363.94 5.66941 363.863 4.93115 363.301 4.30456C362.893 3.84998 362.601 3.72354 361.637 3.58504C360.096 3.36351 357.909 3.36423 357.772 3.58612ZM68.5332 4.05854C67.6392 4.37625 66.3825 5.60421 66.5376 6.00855C66.7108 6.46098 68.0509 6.36354 68.9055 5.83655C69.846 5.25642 70.5189 5.25805 70.9006 5.84123C71.1734 6.25836 71.1734 6.32463 70.9006 6.74176C70.7385 6.98941 70.545 7.19203 70.4705 7.19203C69.7226 7.19203 67.1228 7.6178 66.5273 7.83789C65.633 8.16838 64.9495 8.91744 64.6601 9.88443C64.0182 12.0299 65.8172 13.4032 68.002 12.4355C69.0215 11.9839 69.2818 11.9638 69.4203 12.3251C69.5526 12.6709 71.3142 12.7108 71.4047 12.3701C71.4376 12.2463 71.5603 11.7397 71.6774 11.2444C71.7947 10.7491 72.2103 9.46641 72.6014 8.39369C73.6217 5.5943 73.5136 4.6021 72.1253 4.02108C71.3614 3.70157 69.4828 3.7212 68.5332 4.05854ZM108.321 4.16786C107.515 4.52375 107.433 4.53024 107.278 4.25197C107.073 3.88492 105.471 3.82602 105.193 4.17525C104.874 4.57688 102.245 11.8793 102.305 12.197C102.35 12.4322 102.587 12.5179 103.306 12.5596C104.145 12.608 104.268 12.5684 104.424 12.1993C104.521 11.9713 105.013 10.7097 105.517 9.39598C106.471 6.91394 106.977 6.11139 107.887 5.64005C108.493 5.32631 109.191 5.42663 109.354 5.85096C109.414 6.00657 108.969 7.46633 108.366 9.09485C107.762 10.7234 107.315 12.1772 107.372 12.3256C107.502 12.6653 109.16 12.7015 109.413 12.3701C109.508 12.2463 109.896 11.2939 110.275 10.2538C111.505 6.87684 112.132 5.88283 113.242 5.55C114.03 5.31352 114.501 5.52352 114.501 6.11121C114.501 6.28483 114.01 7.73234 113.41 9.32791C112.809 10.9235 112.369 12.3114 112.431 12.412C112.493 12.5127 112.942 12.5952 113.429 12.5952C114.154 12.5952 114.362 12.5205 114.585 12.1799C114.994 11.5544 117.02 5.82106 117.02 5.28776C117.02 5.01418 116.803 4.60642 116.494 4.29646C115.747 3.54902 114.594 3.56271 113.095 4.3368L111.997 4.9036L111.468 4.3368C111.014 3.84944 110.818 3.77091 110.068 3.77595C109.58 3.77919 108.81 3.95192 108.321 4.16786ZM121.414 4.05854C120.52 4.37625 119.263 5.60421 119.418 6.00855C119.598 6.47881 120.969 6.37813 121.696 5.84123C122.055 5.57629 122.549 5.39096 122.896 5.39096C123.327 5.39096 123.566 5.51236 123.781 5.84123C124.054 6.25836 124.054 6.32463 123.781 6.74176C123.619 6.98941 123.425 7.19203 123.351 7.19203C122.603 7.19203 120.003 7.6178 119.408 7.83789C118.514 8.16838 117.83 8.91744 117.541 9.88443C116.899 12.0299 118.698 13.4032 120.883 12.4355C121.908 11.9814 122.162 11.9634 122.304 12.3346C122.386 12.548 122.631 12.6013 123.341 12.5597L124.27 12.5052L124.579 11.2444C124.749 10.551 125.181 9.1894 125.54 8.21863C126.502 5.61754 126.372 4.59255 125.006 4.02108C124.242 3.70157 122.363 3.7212 121.414 4.05854ZM141.301 3.97911C139.862 4.3721 138.172 6.08726 137.616 7.71938C137.197 8.95058 137.258 10.6108 137.751 11.3528C138.655 12.7159 140.745 13.158 142.471 12.3512C144.146 11.5679 145.038 10.484 144.255 10.183C143.708 9.97305 142.784 10.0746 142.538 10.3718C142.241 10.7302 141.277 11.1544 140.76 11.1544C140.14 11.1544 139.472 10.3406 139.537 9.66542L139.593 9.08314L142.407 9.03361C144.672 8.99381 145.267 8.93023 145.45 8.70852C145.828 8.25249 145.894 5.73911 145.546 5.06479C144.971 3.95228 143.127 3.48058 141.301 3.97911ZM161.86 3.96921C161.543 4.06088 161.235 4.21577 161.175 4.31321C161.01 4.57977 160.441 4.52627 160.187 4.22027C160.051 4.05584 159.657 3.95011 159.18 3.95011C158.564 3.95011 158.342 4.03657 158.14 4.35535C157.688 5.06713 155.126 12.0911 155.225 12.3481C155.347 12.6664 157.013 12.6844 157.27 12.3701C157.371 12.2463 157.837 11.1318 158.304 9.89362C159.306 7.23903 159.852 6.35201 160.822 5.80215C161.966 5.1534 162.705 5.32883 162.705 6.24881C162.705 6.48295 162.251 7.88345 161.696 9.36104C161.14 10.8388 160.733 12.1709 160.791 12.3215C160.922 12.6649 162.577 12.7042 162.836 12.3701C163.176 11.9312 165.09 6.45665 165.178 5.66851C165.259 4.95637 165.208 4.80706 164.72 4.31897C164.254 3.8516 164.043 3.77235 163.304 3.78622C162.826 3.79522 162.177 3.87753 161.86 3.96921ZM187.506 4.01873C185.157 4.85929 183.753 6.77724 183.611 9.34051C183.544 10.5458 183.585 10.7772 183.959 11.3345C184.887 12.717 186.962 13.1622 188.696 12.3512C190.371 11.5679 191.263 10.484 190.48 10.183C189.933 9.97305 189.009 10.0746 188.763 10.3718C188.466 10.7302 187.503 11.1544 186.985 11.1544C186.365 11.1544 185.697 10.3406 185.762 9.66542L185.818 9.08314L188.633 9.03361C190.897 8.99381 191.492 8.93023 191.676 8.70852C192.054 8.25249 192.12 5.73911 191.771 5.06479C191.184 3.92814 189.152 3.42961 187.506 4.01873ZM198.229 4.21559C197.349 4.75807 197.129 4.77518 197.008 4.31033C196.931 4.01784 196.762 3.95011 196.109 3.95011C195.658 3.95011 195.218 4.05566 195.106 4.19092C194.77 4.59616 192.007 12.1129 192.103 12.362C192.222 12.6739 193.893 12.6732 194.152 12.3611C194.259 12.2323 194.627 11.3892 194.971 10.4874C196.33 6.92241 197.071 6.03412 198.914 5.76216C199.465 5.68093 199.672 5.53271 199.974 5.00266C200.18 4.64046 200.299 4.21487 200.239 4.0571C200.073 3.62358 199.059 3.70355 198.229 4.21559ZM204.729 4.16786C203.923 4.52375 203.841 4.53024 203.686 4.25197C203.481 3.88492 201.877 3.82566 201.606 4.17525C201.281 4.59417 198.653 11.8766 198.712 12.1921C198.758 12.4331 198.989 12.5176 199.714 12.5596C200.553 12.608 200.676 12.5684 200.832 12.1993C200.929 11.9713 201.421 10.7097 201.925 9.39598C202.879 6.91394 203.385 6.11139 204.295 5.64005C204.901 5.32631 205.6 5.42663 205.762 5.85096C205.822 6.00657 205.377 7.46633 204.774 9.09485C204.17 10.7234 203.723 12.1772 203.78 12.3256C203.91 12.6653 205.568 12.7015 205.821 12.3701C205.916 12.2463 206.304 11.2939 206.683 10.2538C207.913 6.87684 208.54 5.88283 209.65 5.55C210.438 5.31352 210.91 5.52352 210.91 6.11121C210.91 6.28483 210.418 7.73234 209.818 9.32791C209.217 10.9235 208.777 12.3114 208.839 12.412C208.901 12.5127 209.35 12.5952 209.837 12.5952C210.556 12.5952 210.771 12.5196 210.985 12.19C211.393 11.5628 213.428 5.81403 213.428 5.28938C213.428 5.014 213.212 4.60732 212.902 4.29646C212.155 3.54902 211.002 3.56271 209.503 4.3368L208.405 4.9036L207.876 4.3368C207.422 3.84944 207.226 3.77091 206.476 3.77595C205.988 3.77919 205.218 3.95192 204.729 4.16786ZM217.642 4.05854C216.748 4.37625 215.491 5.60421 215.646 6.00855C215.819 6.46098 217.16 6.36354 218.014 5.83655C218.955 5.25642 219.628 5.25805 220.009 5.84123C220.279 6.25367 220.28 6.32824 220.018 6.72825C219.79 7.0764 219.522 7.1886 218.693 7.28136C215.554 7.63347 214.64 8.05167 213.967 9.44389C212.86 11.7338 214.713 13.4974 217.111 12.4355C218.136 11.9814 218.39 11.9634 218.533 12.3346C218.614 12.548 218.86 12.6013 219.569 12.5597L220.499 12.5052L220.807 11.2444C220.977 10.551 221.409 9.1894 221.768 8.21863C222.73 5.61754 222.6 4.59255 221.234 4.02108C220.47 3.70157 218.592 3.7212 217.642 4.05854ZM229.489 3.96921C229.173 4.06088 228.865 4.21577 228.804 4.31321C228.64 4.57977 228.071 4.52627 227.817 4.22027C227.681 4.05584 227.286 3.95011 226.81 3.95011C226.194 3.95011 225.972 4.03657 225.769 4.35535C225.318 5.06713 222.756 12.0911 222.855 12.3481C222.977 12.6664 224.642 12.6844 224.899 12.3701C225.001 12.2463 225.466 11.1318 225.934 9.89362C226.936 7.23903 227.482 6.35201 228.451 5.80215C229.595 5.1534 230.335 5.32883 230.335 6.24881C230.335 6.48295 229.881 7.88345 229.325 9.36104C228.77 10.8388 228.362 12.1709 228.42 12.3215C228.552 12.6649 230.206 12.7042 230.465 12.3701C230.806 11.9312 232.719 6.45665 232.808 5.66851C232.888 4.95637 232.837 4.80706 232.35 4.31897C231.883 3.8516 231.673 3.77235 230.933 3.78622C230.456 3.79522 229.806 3.87753 229.489 3.96921ZM57.1523 4.2653C56.8575 4.83047 55.0078 9.96764 54.8783 10.5809C54.615 11.8283 55.4891 12.7798 56.8904 12.771C57.2664 12.7687 58.041 12.5745 58.6118 12.3395C59.6302 11.92 59.6532 11.9186 59.837 12.2627C59.9924 12.5532 60.184 12.604 60.9576 12.5592L61.8907 12.5052L63.3908 8.48969C64.2158 6.28123 64.8439 4.35193 64.7867 4.20262C64.6452 3.83323 62.8931 3.92256 62.6758 4.31033C62.5926 4.45891 62.1076 5.67463 61.5983 7.01192C60.823 9.04694 60.5468 9.56528 59.9027 10.1912C58.931 11.1355 58.1358 11.3476 57.5979 10.8062L57.2142 10.4201L57.9589 8.31067C58.3684 7.1506 58.8468 5.82808 59.0222 5.37187C59.4685 4.21055 59.3206 3.95011 58.2155 3.95011C57.5421 3.95011 57.2755 4.02918 57.1523 4.2653ZM81.1705 4.07637C80.7971 4.68801 78.1533 12.1154 78.234 12.3261C78.3641 12.6653 80.0223 12.7011 80.2748 12.3701C80.6018 11.9416 83.2304 4.66622 83.171 4.35391C83.1253 4.11293 82.8965 4.02774 82.185 3.98632C81.6754 3.9566 81.2189 3.99712 81.1705 4.07637ZM90.5194 4.07025C90.4534 4.13616 90.3994 6.04493 90.3994 8.31157C90.3994 12.7764 90.3422 13.0896 89.3895 13.8401C89.1269 14.0469 88.6495 14.2162 88.3288 14.2162C87.7117 14.2162 87.4522 14.4258 87.3013 15.0461C87.1237 15.7755 87.4516 16.0172 88.6186 16.0172C89.8627 16.0172 90.4854 15.7467 91.2511 14.8734C92.3308 13.642 98.8531 4.51547 98.8531 4.23612C98.8531 4.00973 98.6483 3.95011 97.8716 3.95011C96.9768 3.95011 96.85 4.00181 96.4379 4.53546C95.7391 5.44049 94.1414 7.72802 93.5448 8.67754C92.6526 10.0977 92.5309 9.88659 92.5589 6.96689C92.5726 5.55522 92.5778 4.29916 92.5708 4.17525C92.5571 3.93625 90.7457 3.84349 90.5194 4.07025ZM153.281 4.52591C152.064 7.52486 150.454 12.1012 150.538 12.3211C150.67 12.6649 152.326 12.7047 152.581 12.3701C152.908 11.9416 155.536 4.66622 155.477 4.35391C155.431 4.11167 155.201 4.02774 154.47 3.9856C153.547 3.93228 153.516 3.94669 153.281 4.52591ZM234.952 4.07025C234.886 4.13616 234.832 6.04493 234.832 8.31157C234.832 12.7764 234.774 13.0896 233.822 13.8401C233.559 14.0469 233.082 14.2162 232.761 14.2162C232.128 14.2162 231.886 14.4236 231.717 15.1073C231.553 15.7786 231.881 16.0172 232.971 16.0172C234.839 16.0172 235.097 15.7991 238.084 11.7022C242.101 6.19136 243.285 4.48863 243.285 4.2246C243.285 4.01261 243.064 3.95011 242.312 3.95011C241.154 3.95011 241.206 3.89932 238.969 7.23777C238.128 8.49257 237.333 9.52242 237.203 9.52638C237.017 9.53197 236.972 8.98408 236.991 6.96689C237.005 5.55522 237.01 4.29916 237.003 4.17525C236.989 3.93625 235.178 3.84349 234.952 4.07025ZM361.457 4.31033C361.852 4.70566 361.941 5.72236 361.632 6.3014C361.358 6.81362 360.525 7.19851 360.148 6.98725C359.899 6.84802 359.838 6.55517 359.838 5.50209C359.838 4.78058 359.892 4.13616 359.958 4.07025C360.208 3.8199 361.112 3.96452 361.457 4.31033ZM143.275 5.74667C143.745 6.21711 143.917 6.94708 143.638 7.28442C143.474 7.48254 143.022 7.55224 141.903 7.55224C140.162 7.55224 139.943 7.36961 140.592 6.45827C141.3 5.46211 142.637 5.10748 143.275 5.74667ZM189.501 5.74667C189.971 6.21711 190.143 6.94708 189.863 7.28442C189.699 7.48254 189.248 7.55224 188.129 7.55224C186.432 7.55224 186.197 7.38276 186.741 6.55085C187.443 5.47832 188.829 5.07416 189.501 5.74667ZM133.208 5.93128C133.972 6.69691 133.466 8.88935 132.225 10.1863C131.574 10.8658 131.369 10.9743 130.733 10.9743C129.206 10.9743 128.864 9.53197 129.891 7.42544C130.501 6.17479 131.234 5.57107 132.142 5.57107C132.608 5.57107 132.97 5.69354 133.208 5.93128ZM70.0079 8.89853C70.1532 9.27802 69.4123 10.395 68.8071 10.7084C67.7455 11.2581 66.7404 10.9202 66.8681 10.0566C66.9482 9.51666 67.6614 9.02208 68.636 8.83099C69.8086 8.601 69.8955 8.60532 70.0079 8.89853ZM122.884 8.88683C122.937 9.02641 122.85 9.39472 122.69 9.70523C121.959 11.1191 119.718 11.4589 119.718 10.1557C119.718 9.6168 120.287 9.15789 121.291 8.88737C122.425 8.58209 122.767 8.58191 122.884 8.88683ZM219.117 8.89853C219.262 9.27802 218.521 10.395 217.916 10.7084C217.295 11.0297 216.457 11.0535 216.162 10.7581C215.567 10.1623 216.225 9.23479 217.482 8.89691C218.663 8.57956 218.994 8.57974 219.117 8.89853ZM309.897 17.4682C305.365 18.0596 300.478 21.6538 298.28 26.0131C298.03 26.5084 297.014 29.1425 296.022 31.8666C293.834 37.8731 290.85 46.029 288.312 52.939C286.558 57.712 286.418 58.1882 286.325 59.7276C286.264 60.7473 286.307 61.7157 286.439 62.249C286.75 63.5076 287.738 64.9007 288.837 65.628C290.728 66.8794 288.731 66.8072 321.447 66.8072C349.341 66.8072 350.984 66.7899 351.237 66.492C351.384 66.3185 351.69 65.65 351.917 65.0061C352.144 64.3622 352.958 62.1334 353.727 60.0532C356.618 52.233 356.991 51.1601 356.929 50.8381C356.871 50.5335 356.57 50.5005 353.093 50.4175C349.723 50.337 349.314 50.2947 349.262 50.0202C349.23 49.8511 350.109 47.2575 351.216 44.2568C352.324 41.2559 353.536 37.9408 353.911 36.8899C354.5 35.2387 355.827 31.6148 360.038 20.1622C360.856 17.9377 360.905 17.7145 360.629 17.5119C360.399 17.3439 358.478 17.3001 352.623 17.3295C345.179 17.3668 344.908 17.3801 344.579 17.7282C344.392 17.9264 343.73 19.5068 343.108 21.2403C341.626 25.3707 341.418 25.6529 341.377 23.5867C341.309 20.1388 339.089 17.8842 335.338 17.4523C333.558 17.2474 311.484 17.261 309.897 17.4682ZM93.727 17.6403C91.016 18.1953 88.3211 19.7182 86.0821 21.9602C83.3359 24.7101 83.4046 24.5622 78.0842 39.1609C75.9972 44.8872 72.6197 54.1104 71.8188 56.271C71.1209 58.1533 71.0838 58.3555 71.0741 60.3234C71.0641 62.3501 71.0772 62.4191 71.6815 63.5354C72.2594 64.6027 73.214 65.5742 74.1763 66.0745C75.6112 66.8205 74.8545 66.8032 105.975 66.8052C134.031 66.807 135.685 66.7897 135.948 66.492C136.101 66.3187 136.769 64.6774 137.433 62.8448C138.098 61.0123 139.152 58.1351 139.776 56.4511C141.485 51.842 141.737 51.0544 141.609 50.7221C141.505 50.4498 141.101 50.4175 137.794 50.4175C134.625 50.4175 134.08 50.3777 133.989 50.1394C133.93 49.9863 134.631 47.8184 135.546 45.3216C136.461 42.8248 138.247 37.9452 139.514 34.4781C140.782 31.0111 142.666 25.869 143.7 23.0515C144.734 20.2339 145.54 17.8226 145.49 17.6933C145.351 17.3302 129.564 17.3493 129.263 17.7131C129.147 17.8532 128.508 19.4477 127.844 21.256C127.18 23.0644 126.549 24.5735 126.441 24.6094C126.318 24.6506 126.209 24.1832 126.145 23.3394C125.961 20.9091 124.687 19.0789 122.447 18.0272L121.426 17.5481L107.936 17.5206C100.517 17.5054 94.1227 17.5595 93.727 17.6403ZM167.44 17.6463C163.549 18.4166 159.463 21.3145 157.251 24.872C156.406 26.2309 156.118 26.9662 151.558 39.431C150.212 43.109 146.113 54.2938 145.121 56.9914C144.728 58.0607 144.655 58.5668 144.643 60.3234C144.63 62.2391 144.667 62.4711 145.129 63.4142C146.02 65.2316 147.876 66.4864 150.161 66.8174C151.558 67.0197 209.112 67.0379 209.43 66.8363C209.556 66.7562 210.472 64.468 211.465 61.7511C212.458 59.0342 213.758 55.4889 214.353 53.8727C214.949 52.2566 215.391 50.8179 215.337 50.6758C215.255 50.4627 214.574 50.4175 211.449 50.4175C208.584 50.4175 207.64 50.3626 207.575 50.1924C207.487 49.9602 207.95 48.6305 211.543 38.8007C212.702 35.6308 213.957 32.1863 214.332 31.1461C214.708 30.106 215.945 26.7078 217.081 23.5945C218.218 20.4813 219.106 17.8269 219.056 17.696C218.916 17.3297 203.132 17.347 202.827 17.7138C202.711 17.8547 202.074 19.449 201.412 21.2569C200.749 23.0648 200.106 24.5773 199.983 24.6182C199.823 24.6708 199.758 24.4325 199.758 23.7958C199.758 22.3123 199.15 20.6829 198.202 19.6278C197.745 19.1179 197.037 18.5304 196.631 18.3222C194.957 17.4651 194.885 17.4613 181.142 17.4799C174.019 17.4896 167.853 17.5645 167.44 17.6463ZM240.674 17.7324C237.246 18.4868 233.379 21.087 231.407 23.9637C230.278 25.6104 229.763 26.7955 227.543 32.8572C225.282 39.0319 224.934 39.9795 221.432 49.517C217.983 58.9065 218.056 58.6588 218.146 60.6836C218.209 62.088 218.312 62.5795 218.722 63.4268C219.603 65.2457 221.328 66.4176 223.68 66.7964C224.431 66.9172 230.751 66.9851 241.357 66.9858C254.765 66.9871 257.883 67.0314 257.956 67.2223C258.058 67.4876 256.353 71.1683 255.988 71.4716C255.821 71.6102 250.332 71.6819 237.377 71.7142C225.296 71.7444 218.996 71.8217 218.983 71.9402C218.972 72.0393 219.478 72.4353 220.107 72.8204C223.752 75.0496 227.003 78.298 229.372 82.0766C229.899 82.917 230.422 83.7154 230.535 83.851C230.704 84.0559 233.289 84.0974 245.882 84.0974C255.84 84.0974 261.392 84.0315 262.093 83.9048C265.547 83.2822 268.217 81.3799 270.164 78.1537C271.07 76.6539 271.524 75.5095 275.388 65.0061C276.609 61.6877 279.485 53.9071 281.779 47.7159C287.351 32.6817 287.291 32.8509 287.635 31.0282C288.169 28.1897 287.824 25.174 286.72 23.0352C285.305 20.2955 282.469 18.3172 279.091 17.7138C277.124 17.3624 242.278 17.3794 240.674 17.7324ZM122.896 34.1321C123.003 34.4133 122.62 35.5368 119.891 42.9431C119.125 45.0233 118.235 47.4548 117.915 48.3463C117.595 49.2378 117.253 50.0686 117.154 50.1924C117.014 50.3687 114.155 50.4175 103.952 50.4175C92.5933 50.4175 90.9146 50.3833 90.8252 50.1497C90.7687 50.0025 91.468 47.8344 92.379 45.3319C94.3173 40.0081 96.0411 35.3702 96.4133 34.4781L96.6764 33.8477H109.731C121.462 33.8477 122.798 33.8766 122.896 34.1321ZM196.486 34.251C196.519 34.4234 196.019 36.0038 195.375 37.7631C194.731 39.5225 193.507 42.9071 192.654 45.2845C191.802 47.6619 190.986 49.7893 190.84 50.0123L190.576 50.4175H177.535C165.797 50.4175 164.482 50.3889 164.383 50.132C164.323 49.975 164.522 49.1849 164.826 48.376C165.129 47.5672 166.404 44.1093 167.659 40.6918C168.914 37.2743 170.015 34.3358 170.107 34.1617C170.264 33.8638 171.034 33.8481 183.35 33.8915C195.608 33.9349 196.429 33.9574 196.486 34.251ZM270.029 34.1406C270.091 34.3016 270.038 34.7272 269.911 35.0862C269.526 36.1767 266.332 44.9446 265.376 47.5358C264.882 48.8731 264.394 50.069 264.291 50.1935C264.143 50.3721 261.354 50.4101 251.044 50.3736C238.793 50.3303 237.98 50.308 237.924 50.0137C237.891 49.8412 238.483 48.0176 239.241 45.9613C239.998 43.905 241.267 40.4396 242.062 38.2603C242.857 36.0811 243.588 34.1968 243.688 34.0729C243.83 33.8965 246.69 33.8477 256.893 33.8477C268.752 33.8477 269.927 33.8739 270.029 34.1406ZM338.19 34.1197C338.247 34.2692 337.67 36.1131 336.906 38.2171C334.504 44.8369 332.673 49.7771 332.519 50.0573C332.389 50.2929 330.692 50.3334 319.234 50.3736C308.314 50.4121 306.082 50.3786 306.004 50.1756C305.953 50.0415 306.513 48.278 307.249 46.2572C310.922 36.1769 311.502 34.628 311.742 34.253L312.002 33.8477H325.044C336.509 33.8477 338.099 33.8807 338.19 34.1197ZM147.597 70.5809C147.597 70.6755 147.779 70.8792 148.001 71.0337C151.455 73.4318 152.76 74.6398 154.164 76.7346C156.306 79.9321 157.094 83.8425 156.25 87.0938C155.762 88.9746 155.612 89.1045 154.726 88.4068C154.26 88.0399 154.252 87.9965 154.252 85.824C154.252 84.1959 154.156 83.2399 153.888 82.19C152.738 77.6883 149.641 74.1703 145.383 72.5283C144.051 72.0144 141.443 71.6544 140.015 71.7873C138.107 71.9647 137.903 72.3908 139.589 72.6747C140.758 72.8713 142.915 73.6265 144.269 74.3133C147.874 76.1408 150.567 79.0859 151.569 82.2963C151.949 83.5133 152.334 86.1943 152.168 86.464C151.987 86.7568 151.214 86.6183 150.769 86.2136C150.512 85.9804 150.2 85.3678 150.034 84.7706C149.874 84.1997 149.414 83.1055 149.012 82.3392C146.924 78.3615 143.475 75.8019 139.078 74.9667C136.602 74.4963 133.726 74.9022 131.41 76.0495C129.894 76.8004 129.767 77.1422 131.076 76.9468C131.605 76.8677 133.252 76.8124 134.736 76.824C137.108 76.8423 137.629 76.9034 139.044 77.329C141.666 78.1173 143.321 79.082 145.083 80.8488C146.222 81.9919 146.792 82.7381 147.304 83.7573C148.14 85.4213 148.119 85.7873 147.185 85.8646C146.591 85.9139 146.435 85.8366 145.928 85.2401C142.911 81.6949 140.819 80.2373 137.54 79.3962C135.889 78.9726 132.897 78.9429 131.229 79.3336C129.238 79.8 126.968 81.0298 125.412 82.484C124.655 83.1929 124.034 83.883 124.034 84.0178C124.034 84.1827 124.638 83.972 125.878 83.3742C131.275 80.7722 136.615 80.7438 140.762 83.2944C141.924 84.0093 143.82 85.7976 143.82 86.179C143.82 86.3251 143.54 86.5783 143.197 86.7419C142.579 87.0369 142.567 87.0345 141.533 86.4002C138.581 84.5889 136.347 83.8875 133.477 83.8712C130.418 83.8537 128.089 84.5539 125.653 86.2239C123.827 87.4758 121.954 89.7097 121.144 91.602C120.488 93.1342 120.8 93.0672 122.616 91.2865C125.834 88.1323 129.335 86.4551 133.028 86.2995C134.066 86.2558 135.371 86.3049 135.927 86.4088C137.207 86.6482 139.419 87.5043 139.888 87.9416C140.233 88.2641 140.234 88.2881 139.921 88.6346C139.308 89.3131 139.025 89.3593 137.561 89.0213C135.74 88.6002 132.674 88.6121 130.959 89.0467C128.32 89.7156 126.207 90.9513 124.29 92.9476C122.175 95.1485 120.897 97.958 120.67 100.904C120.522 102.824 120.792 102.703 121.828 100.389C123.445 96.7743 126.143 93.7838 129.109 92.3174C131.19 91.2885 132.623 90.9475 134.883 90.9441C137.319 90.9403 137.765 91.2249 136.939 92.2562C136.595 92.685 136.333 92.7877 135.186 92.9429C131.974 93.3775 129.181 94.7607 126.896 97.0486C125.23 98.7168 124.347 100.103 123.546 102.311C123.104 103.527 123.063 103.866 123.06 106.34C123.056 108.584 123.116 109.208 123.41 110.021C123.958 111.535 124.145 111.372 124.267 109.273C124.596 103.641 127.284 98.8416 131.432 96.4773C132.889 95.6472 135.419 94.8823 135.714 95.1829C136.036 95.5112 135.65 96.5976 135.089 96.9404C131.422 99.1823 130.389 100.07 128.982 102.19C126.1 106.534 125.78 111.551 128.101 115.976C128.747 117.207 129.865 118.658 130.038 118.488C130.094 118.433 129.9 117.554 129.607 116.534C127.744 110.052 129.273 103.981 133.661 100.439C135.299 99.1171 135.896 99.1099 135.903 100.411C135.905 100.839 135.637 101.273 134.739 102.302C132.766 104.563 131.531 107.333 131.248 110.132C130.828 114.275 132.196 118.255 134.991 121.021C135.993 122.013 137.599 123.18 137.961 123.18C138.224 123.18 138.001 122.709 137.294 121.771C135.656 119.597 134.809 117.903 134.076 115.337C133.741 114.164 133.669 113.482 133.677 111.564C133.687 109.518 133.75 109.033 134.178 107.728C134.847 105.686 136.266 103.369 136.847 103.369C136.991 103.369 137.256 103.645 137.438 103.983L137.768 104.596L137.183 106.079C134.942 111.758 136.152 117.613 140.393 121.608C141.928 123.055 143.55 124.005 145.502 124.603C147.954 125.355 148.008 125.059 145.7 123.536C142.611 121.496 140.169 118.432 139.026 115.163C138.568 113.854 138.522 113.498 138.52 111.203C138.518 109.133 138.581 108.505 138.875 107.692C139.272 106.595 139.562 106.44 140.204 106.98C140.616 107.326 140.638 107.454 140.674 109.723C140.718 112.464 141.201 114.462 142.319 116.516C144.153 119.89 147.24 122.367 150.744 123.277C152.796 123.81 156.355 123.797 156.535 123.256C156.571 123.148 155.758 122.858 154.661 122.586C147.876 120.905 143.093 115.914 142.884 110.297L142.83 108.862L143.437 108.891C144.231 108.929 144.416 109.153 144.902 110.663C147.511 118.763 156.38 122.946 163.463 119.416C164.819 118.74 165.359 118.154 164.404 118.394C163.341 118.661 160.458 118.8 158.922 118.658C156.727 118.456 155.345 118.074 153.442 117.146C151.499 116.198 150.043 115.075 148.946 113.678C148.017 112.496 146.808 110.112 146.951 109.741C147.01 109.587 147.319 109.492 147.763 109.492C148.433 109.492 148.546 109.574 149.458 110.708C151.108 112.761 152.513 113.932 154.554 114.958C158.656 117.021 163.466 116.947 167.195 114.765C168.481 114.013 170.893 111.834 170.781 111.527C170.738 111.409 170.054 111.645 169.068 112.117C166.425 113.383 164.623 113.841 161.896 113.942C158.935 114.052 157.471 113.765 155.157 112.621C153.88 111.99 153.142 111.473 152.205 110.555C150.825 109.203 150.797 108.897 152.028 108.665C152.538 108.57 152.828 108.66 153.674 109.179C155.288 110.168 156.175 110.575 157.742 111.046C163.984 112.919 170.628 110.108 173.547 104.359C174.584 102.318 174.268 102.067 172.786 103.754C170.812 105.999 167.523 108.019 164.594 108.784C161.867 109.496 158.497 109.235 156.168 108.131C154.698 107.434 154.583 107.227 155.309 106.578C155.637 106.285 156.018 106.089 156.157 106.142C156.295 106.195 157.117 106.373 157.983 106.537C159.989 106.917 162.802 106.79 164.599 106.239C169.087 104.862 172.667 101.321 173.835 97.1021C174.551 94.5124 174.49 91.7308 173.757 93.585C172.289 97.299 170.473 99.8736 167.95 101.815C165.356 103.811 161.908 104.851 159.021 104.509C157.589 104.339 157.392 104.084 158.013 103.211C158.339 102.753 158.557 102.665 159.826 102.479C161.84 102.184 162.906 101.84 164.774 100.881C166.074 100.214 166.711 99.7297 168.012 98.4225C169.85 96.5742 170.599 95.4082 171.401 93.1497C171.928 91.6658 171.961 91.4216 171.956 89.0503C171.951 87.0154 171.883 86.3399 171.6 85.5501C171.407 85.0119 171.164 84.5446 171.061 84.5118C170.945 84.4749 170.791 85.2646 170.66 86.5709C170.32 89.9449 169.639 92.0971 168.192 94.3634C166.243 97.4166 163.522 99.4961 160.628 100.144C159.355 100.43 159.043 100.298 159.205 99.5416C159.375 98.745 159.499 98.6206 160.877 97.8645C162.332 97.0665 164.242 95.5319 165.127 94.4495C168.886 89.8564 169.446 84.0925 166.623 79.0443C165.993 77.9179 165.137 76.9196 164.956 77.101C164.907 77.1499 165.063 77.8729 165.302 78.7075C165.937 80.9228 166.123 82.1486 166.123 84.1147C166.123 86.9791 165.344 89.9759 164.079 91.9837C163.393 93.0719 161.741 94.7807 160.645 95.5368C159.483 96.3377 159.108 96.2221 159.108 95.0637C159.108 94.4839 159.254 94.2064 159.977 93.4065C161.111 92.1526 161.806 91.1192 162.483 89.6807C163.515 87.4891 163.695 86.5992 163.688 83.7372C163.682 81.3574 163.637 80.9977 163.181 79.6848C162.907 78.8923 162.41 77.7564 162.079 77.1604C161.287 75.7381 159.548 73.8549 158.182 72.9418C156.488 71.8087 156.347 71.9618 157.597 73.5747C161.043 78.0175 162.186 83.2156 160.742 87.8823C160.373 89.0746 159.37 90.8875 158.587 91.7769L158.155 92.2672L157.733 91.7393C157.186 91.0554 157.2 90.7624 157.855 89.1529C159.557 84.9703 159.127 80.0376 156.736 76.3164C155.051 73.6955 152.227 71.6173 149.214 70.7812C147.685 70.3569 147.597 70.3461 147.597 70.5809ZM201.557 70.6721C198.995 71.4017 197.109 72.5319 195.366 74.3821C191.699 78.2744 190.692 83.8373 192.7 89.1065C193.324 90.746 193.332 90.7973 193.044 91.4028C192.863 91.7823 192.619 92.022 192.413 92.022C191.891 92.022 190.477 89.7314 189.824 87.8284C189.3 86.2984 189.255 85.9854 189.254 83.8272C189.254 81.939 189.332 81.2068 189.66 80.045C190.221 78.0588 191.404 75.652 192.714 73.8313C193.32 72.9893 193.731 72.2718 193.629 72.2368C193.313 72.1299 191.45 73.4722 190.405 74.5589C189.169 75.8449 188.02 77.7573 187.402 79.56C186.765 81.4181 186.609 84.8551 187.072 86.8371C187.554 88.9001 188.962 91.5988 190.325 93.0731C191.218 94.0394 191.484 94.4517 191.484 94.8708C191.484 96.1047 191.095 96.267 189.952 95.5101C188.229 94.3695 186.503 92.2859 185.614 90.273C184.163 86.989 184.072 82.1443 185.387 78.1899C185.595 77.5631 185.709 76.9945 185.639 76.9266C185.45 76.7413 184.539 77.9024 183.758 79.3246C181.151 84.0666 181.758 89.9434 185.299 94.2508C186.326 95.5002 188.152 96.991 189.713 97.8551C191.09 98.6173 191.213 98.7434 191.366 99.5483C191.515 100.339 191.247 100.42 189.721 100.045C188.047 99.6346 186.137 98.5358 184.64 97.1214C181.783 94.4227 180.139 90.6424 179.854 86.1178C179.777 84.9028 179.67 84.2876 179.54 84.3286C179.101 84.4686 178.662 86.3527 178.576 88.4727C178.469 91.0891 178.758 92.477 179.913 94.8836C180.615 96.3467 180.958 96.8082 182.462 98.3085C183.705 99.5492 184.558 100.229 185.459 100.697C187.143 101.573 189.123 102.232 190.765 102.464C191.891 102.623 192.18 102.736 192.517 103.147C193.347 104.158 192.871 104.464 190.444 104.478C188.286 104.49 186.913 104.155 184.664 103.069C183.231 102.377 182.716 101.998 181.313 100.604C179.443 98.7454 178.244 97.0027 177.289 94.7546C176.415 92.6965 176.1 92.598 176.255 94.4308C176.427 96.4649 176.672 97.3202 177.66 99.328C179.894 103.87 184.755 106.795 190.045 106.781C190.949 106.778 193.034 106.47 194.208 106.165C194.582 106.067 194.808 106.152 195.271 106.567C195.644 106.901 195.807 107.175 195.718 107.319C195.508 107.66 193.346 108.581 192.024 108.893C190.239 109.315 186.969 109.133 185.099 108.51C182.514 107.648 179.789 105.876 177.789 103.758C176.279 102.158 176.016 102.285 176.926 104.175C179.672 109.876 186.343 112.827 192.576 111.098C193.997 110.703 195.494 110.03 196.826 109.185C197.341 108.859 197.922 108.592 198.119 108.592C198.723 108.592 199.398 108.928 199.398 109.229C199.398 109.712 197.576 111.373 196.095 112.241C193.941 113.504 192.29 113.902 189.236 113.898C186.163 113.893 184.587 113.527 181.728 112.157C180.665 111.647 179.738 111.289 179.667 111.359C179.596 111.43 180.158 112.087 180.916 112.82C181.966 113.834 182.691 114.346 183.966 114.973C186.183 116.064 187.532 116.385 189.865 116.379C194.276 116.367 198.002 114.496 200.975 110.802C202.023 109.499 202.053 109.478 202.814 109.535C203.673 109.6 203.697 109.956 202.945 111.541C201.889 113.767 199.392 116.11 196.791 117.315C194.72 118.274 193.279 118.549 190.225 118.57C188.692 118.579 187.044 118.521 186.563 118.439C185.332 118.229 185.512 118.608 186.994 119.35C191.419 121.564 196.844 120.858 201.087 117.518C202.91 116.082 204.821 113.176 205.688 110.521C206.114 109.214 206.612 108.699 207.347 108.803C207.745 108.86 207.759 108.917 207.698 110.213C207.561 113.112 206.286 115.783 203.911 118.149C201.636 120.415 199.32 121.68 195.813 122.573C194.881 122.811 194.074 123.049 194.02 123.102C193.593 123.53 196.479 123.817 198.319 123.53C205.132 122.467 209.907 116.672 209.864 109.519C209.853 107.535 209.866 107.46 210.324 107.035C210.584 106.794 210.923 106.621 211.078 106.651C211.839 106.797 212.409 110.842 212 113.193C211.306 117.188 208.587 121.054 204.646 123.653C203.732 124.257 203.198 124.716 203.298 124.816C203.565 125.083 205.453 124.513 207.288 123.612C208.672 122.932 209.234 122.52 210.436 121.306C212.564 119.156 213.64 117.172 214.223 114.318C214.747 111.753 214.437 108.597 213.421 106.177C212.779 104.646 212.765 104.335 213.312 103.651L213.733 103.124L214.165 103.614C214.947 104.502 215.951 106.315 216.321 107.508C217.747 112.104 216.698 117.057 213.31 121.721C212.778 122.454 212.376 123.088 212.418 123.13C212.65 123.362 214.256 122.214 215.59 120.862C218.14 118.276 219.363 115.263 219.363 111.564C219.363 107.882 217.784 104.091 215.242 101.669C214.794 101.242 214.687 100.994 214.687 100.385C214.687 99.1685 215.036 99.051 216.222 99.8689C221.156 103.271 223.023 110.283 220.788 117.01C220.323 118.409 220.4 118.756 221.026 118.08C221.824 117.218 222.793 115.418 223.37 113.727C223.863 112.281 223.924 111.868 223.934 109.943C223.947 107.282 223.667 106.126 222.387 103.56C221.635 102.053 221.191 101.423 220.148 100.378C218.881 99.1097 217.462 98.0487 216.069 97.3292C215.199 96.8793 214.937 96.5787 214.782 95.8491C214.613 95.0511 214.974 94.9416 216.469 95.338C219.741 96.2055 222.893 98.9489 224.547 102.37C225.551 104.447 226.105 106.624 226.306 109.289C226.449 111.19 226.648 111.315 227.181 109.841C227.468 109.047 227.536 108.385 227.54 106.34C227.545 103.965 227.513 103.728 226.983 102.241C226.253 100.197 225.491 98.9435 224 97.3364C221.879 95.0507 218.954 93.5038 215.779 92.9887C214.388 92.763 213.979 92.6241 213.652 92.2655C213.43 92.0215 213.248 91.6658 213.248 91.4751C213.248 91.2598 213.401 91.0974 213.652 91.0464C217.391 90.2896 221.653 91.6813 224.799 94.6863C226.656 96.4597 228.524 99.3688 229.245 101.61C229.499 102.399 229.751 102.614 229.916 102.184C230.102 101.697 229.649 98.7949 229.187 97.521C227.753 93.5634 224.198 90.3152 219.982 89.1101C218.134 88.5816 214.499 88.5363 212.751 89.0197C211.554 89.3511 211.269 89.2969 210.658 88.62C210.396 88.3308 210.367 88.1903 210.527 87.9965C210.817 87.6469 212.6 86.8696 213.874 86.5373C215.212 86.1882 218.147 86.1787 219.748 86.5184C222.641 87.1325 225.585 88.8466 228.021 91.3355C228.875 92.2083 229.624 92.9226 229.685 92.9226C230.146 92.9226 228.959 90.4803 227.688 88.8151C225.684 86.1891 222.646 84.4579 219.089 83.9156C215.846 83.4211 212.001 84.3385 209.168 86.283C208.293 86.884 207.525 86.9412 206.927 86.4501L206.503 86.1012L207.776 84.8479C208.761 83.8793 209.435 83.4086 210.744 82.7752C213.033 81.6679 214.823 81.3187 217.554 81.4462C220.172 81.5685 221.952 82.0294 224.443 83.2294C225.506 83.7415 226.424 84.1109 226.485 84.0505C226.663 83.8719 224.939 82.1355 223.712 81.2584C221.452 79.6421 218.093 78.7153 215.408 78.9665C211.319 79.349 207.925 81.1825 205.243 84.4576C204.222 85.7045 204.079 85.8127 203.385 85.8638C202.344 85.9406 202.296 85.6486 203.087 84.0658C204.764 80.708 207.465 78.5081 211.359 77.3265C212.817 76.8843 213.265 76.8337 215.856 76.8191C217.439 76.8103 219.125 76.8632 219.603 76.9367C221.372 77.2088 220.012 76.181 217.475 75.3282C216.216 74.9053 215.742 74.8433 213.697 74.8352C211.733 74.8271 211.144 74.8929 210.015 75.2466C205.529 76.6505 202.105 79.9965 200.632 84.4144C200.027 86.2262 199.846 86.4602 199.016 86.4998L198.409 86.5288L198.46 85.178C198.55 82.8121 199.399 80.6278 201.095 78.3952C202.899 76.0203 206.615 73.7144 209.92 72.9178C210.811 72.7031 211.74 72.4495 211.985 72.3541C212.851 72.0171 211.863 71.7729 209.65 71.777C206.484 71.783 204.01 72.6235 201.551 74.5281C198.04 77.2481 195.824 82.2873 196.227 86.6325C196.337 87.8122 196.321 87.8834 195.846 88.3255C195.574 88.5795 195.23 88.765 195.081 88.738C194.933 88.7108 194.651 88.2432 194.454 87.6988C193.96 86.3309 193.947 82.3619 194.432 80.7654C195.516 77.1959 198.124 73.9001 201.691 71.5948C203.456 70.4541 203.411 70.1438 201.557 70.6721ZM149.444 89.0447C154.001 90.0119 157.134 94.4958 156.43 99.0462C156.143 100.908 155.384 102.436 154.067 103.81C148.95 109.146 140.012 106.339 138.777 99.0066C138.036 94.6118 141.213 90.0214 145.666 89.0528C147.136 88.7329 147.966 88.7311 149.444 89.0447ZM204.957 89.0575C207.229 89.5937 209.126 90.9039 210.363 92.792C211.358 94.3097 211.809 95.8354 211.809 97.6817C211.809 101.601 209.487 104.81 205.713 106.106C204.104 106.658 201.586 106.653 200.042 106.094C195.92 104.601 193.445 100.488 194.149 96.297C194.463 94.4263 195.275 92.8795 196.686 91.4686C198.972 89.1812 201.885 88.3322 204.957 89.0575Z" fill="#ADB8CC"/>
</svg>
