<svg width="250" height="68" viewBox="0 0 250 68" fill="none" xmlns="http://www.w3.org/2000/svg">
<path d="M4 38.1379C4 14.9655 64 4 64 4C64 4 59.8621 64 34 64C17.4483 64 4 54.6897 4 38.1379Z" stroke="white" stroke-width="8" stroke-linecap="round" stroke-linejoin="round"/>
<path d="M4 63.9993C4 63.9993 17.4483 42.2752 35.0345 32.9648" stroke="white" stroke-width="8" stroke-linecap="round" stroke-linejoin="round"/>
<path d="M83.4 29V6.6H87.08V16.232H96.328V6.6H100.008V29H96.328V19.528H87.08V29H83.4ZM108.262 11.208C107.772 11.6987 107.153 11.944 106.406 11.944C105.66 11.944 105.041 11.6987 104.55 11.208C104.06 10.696 103.814 10.0773 103.814 9.352C103.814 8.62667 104.06 8.01867 104.55 7.528C105.041 7.016 105.66 6.76 106.406 6.76C107.153 6.76 107.772 7.016 108.262 7.528C108.753 8.01867 108.998 8.62667 108.998 9.352C108.998 10.0773 108.753 10.696 108.262 11.208ZM104.646 29V14.088H108.134V29H104.646ZM123.591 14.088H127.079V28.36C127.079 31.3467 126.183 33.4907 124.391 34.792C123.218 35.6667 121.511 36.104 119.271 36.104C117.095 36.104 115.346 35.656 114.023 34.76C112.508 33.736 111.719 32.3813 111.655 30.696H115.303C115.623 32.3813 116.935 33.224 119.239 33.224C120.711 33.224 121.799 32.8613 122.503 32.136C123.228 31.432 123.591 30.2587 123.591 28.616V26.984C123.164 27.7093 122.492 28.296 121.575 28.744C120.679 29.1707 119.762 29.384 118.823 29.384C116.562 29.384 114.77 28.648 113.447 27.176C112.146 25.6827 111.495 23.8053 111.495 21.544C111.495 19.304 112.178 17.4373 113.543 15.944C114.93 14.4507 116.722 13.704 118.919 13.704C119.922 13.704 120.839 13.9173 121.671 14.344C122.503 14.7707 123.143 15.3573 123.591 16.104V14.088ZM119.335 26.28C120.7 26.28 121.778 25.832 122.567 24.936C123.356 24.0187 123.751 22.888 123.751 21.544C123.751 20.2 123.356 19.08 122.567 18.184C121.778 17.2667 120.7 16.808 119.335 16.808C118.034 16.808 116.978 17.256 116.167 18.152C115.378 19.0267 114.983 20.1573 114.983 21.544C114.983 22.9307 115.378 24.072 116.167 24.968C116.978 25.8427 118.034 26.28 119.335 26.28ZM139.905 13.704C143.531 13.704 145.345 15.6773 145.345 19.624V29H141.857V21.224C141.857 19.6027 141.611 18.44 141.121 17.736C140.63 17.032 139.787 16.68 138.593 16.68C137.462 16.68 136.587 17.0427 135.969 17.768C135.35 18.472 135.041 19.4853 135.041 20.808V29H131.553V6.6H135.041V16.168C136.001 14.5253 137.622 13.704 139.905 13.704ZM160.654 14.088H164.142V28.36C164.142 31.3467 163.246 33.4907 161.454 34.792C160.28 35.6667 158.574 36.104 156.334 36.104C154.158 36.104 152.408 35.656 151.086 34.76C149.571 33.736 148.782 32.3813 148.718 30.696H152.366C152.686 32.3813 153.998 33.224 156.302 33.224C157.774 33.224 158.862 32.8613 159.566 32.136C160.291 31.432 160.654 30.2587 160.654 28.616V26.984C160.227 27.7093 159.555 28.296 158.638 28.744C157.742 29.1707 156.824 29.384 155.885 29.384C153.624 29.384 151.832 28.648 150.51 27.176C149.208 25.6827 148.558 23.8053 148.558 21.544C148.558 19.304 149.24 17.4373 150.606 15.944C151.992 14.4507 153.784 13.704 155.982 13.704C156.984 13.704 157.902 13.9173 158.734 14.344C159.566 14.7707 160.206 15.3573 160.654 16.104V14.088ZM156.398 26.28C157.763 26.28 158.84 25.832 159.63 24.936C160.419 24.0187 160.814 22.888 160.814 21.544C160.814 20.2 160.419 19.08 159.63 18.184C158.84 17.2667 157.763 16.808 156.398 16.808C155.096 16.808 154.04 17.256 153.23 18.152C152.44 19.0267 152.046 20.1573 152.046 21.544C152.046 22.9307 152.44 24.072 153.23 24.968C154.04 25.8427 155.096 26.28 156.398 26.28ZM168.615 29V14.088H172.103V16.968C172.359 15.9653 172.86 15.208 173.607 14.696C174.354 14.1627 175.175 13.896 176.071 13.896C176.647 13.896 177.106 13.9387 177.447 14.024V17.224C177.084 17.1813 176.626 17.16 176.071 17.16C174.834 17.16 173.863 17.6187 173.159 18.536C172.455 19.432 172.103 20.7227 172.103 22.408V29H168.615ZM193.369 20.776C193.369 21.16 193.337 21.8 193.273 22.696H182.201C182.244 23.8693 182.628 24.776 183.353 25.416C184.078 26.0347 185.081 26.344 186.361 26.344C188.004 26.344 189.113 25.7787 189.689 24.648H193.209C192.974 26.0347 192.217 27.176 190.937 28.072C189.678 28.9467 188.153 29.384 186.361 29.384C184.014 29.384 182.158 28.68 180.793 27.272C179.428 25.864 178.745 23.9547 178.745 21.544C178.745 19.1547 179.417 17.256 180.761 15.848C182.126 14.4187 183.95 13.704 186.233 13.704C188.366 13.704 190.084 14.3653 191.385 15.688C192.708 16.9893 193.369 18.6853 193.369 20.776ZM182.201 20.04H189.945C189.924 18.888 189.582 18.0027 188.921 17.384C188.281 16.7653 187.364 16.456 186.169 16.456C184.953 16.456 183.993 16.7867 183.289 17.448C182.585 18.1093 182.222 18.9733 182.201 20.04ZM210.557 20.776C210.557 21.16 210.525 21.8 210.461 22.696H199.389C199.431 23.8693 199.815 24.776 200.541 25.416C201.266 26.0347 202.269 26.344 203.549 26.344C205.191 26.344 206.301 25.7787 206.877 24.648H210.397C210.162 26.0347 209.405 27.176 208.125 28.072C206.866 28.9467 205.341 29.384 203.549 29.384C201.202 29.384 199.346 28.68 197.981 27.272C196.615 25.864 195.933 23.9547 195.933 21.544C195.933 19.1547 196.605 17.256 197.949 15.848C199.314 14.4187 201.138 13.704 203.421 13.704C205.554 13.704 207.271 14.3653 208.573 15.688C209.895 16.9893 210.557 18.6853 210.557 20.776ZM199.389 20.04H207.133C207.111 18.888 206.77 18.0027 206.109 17.384C205.469 16.7653 204.551 16.456 203.357 16.456C202.141 16.456 201.181 16.7867 200.477 17.448C199.773 18.1093 199.41 18.9733 199.389 20.04ZM213.928 29V14.088H217.416V16.168C218.376 14.5253 219.997 13.704 222.28 13.704C225.906 13.704 227.72 15.6773 227.72 19.624V29H224.232V21.224C224.232 19.6027 223.986 18.44 223.496 17.736C223.005 17.032 222.162 16.68 220.968 16.68C219.837 16.68 218.962 17.0427 218.344 17.768C217.725 18.472 217.416 19.4853 217.416 20.808V29H213.928Z" fill="white"/>
<path d="M89.656 60V41.056H83.16V37.6H99.864V41.056H93.336V60H89.656ZM113.525 51.776C113.525 52.16 113.493 52.8 113.429 53.696H102.357C102.4 54.8693 102.784 55.776 103.509 56.416C104.235 57.0347 105.237 57.344 106.517 57.344C108.16 57.344 109.269 56.7787 109.845 55.648H113.365C113.131 57.0347 112.373 58.176 111.093 59.072C109.835 59.9467 108.309 60.384 106.517 60.384C104.171 60.384 102.315 59.68 100.949 58.272C99.5839 56.864 98.9013 54.9547 98.9013 52.544C98.9013 50.1547 99.5733 48.256 100.917 46.848C102.283 45.4187 104.107 44.704 106.389 44.704C108.523 44.704 110.24 45.3653 111.541 46.688C112.864 47.9893 113.525 49.6853 113.525 51.776ZM102.357 51.04H110.101C110.08 49.888 109.739 49.0027 109.077 48.384C108.437 47.7653 107.52 47.456 106.325 47.456C105.109 47.456 104.149 47.7867 103.445 48.448C102.741 49.1093 102.379 49.9733 102.357 51.04ZM123.513 60.384C121.23 60.384 119.417 59.6693 118.073 58.24C116.75 56.7893 116.089 54.8907 116.089 52.544C116.089 50.1973 116.75 48.3093 118.073 46.88C119.417 45.4293 121.23 44.704 123.513 44.704C125.561 44.704 127.203 45.2267 128.441 46.272C129.699 47.296 130.414 48.672 130.585 50.4H127.097C126.713 48.672 125.518 47.808 123.513 47.808C122.275 47.808 121.305 48.224 120.601 49.056C119.918 49.8667 119.577 51.0293 119.577 52.544C119.577 54.0587 119.918 55.232 120.601 56.064C121.305 56.8747 122.275 57.28 123.513 57.28C125.497 57.28 126.691 56.4693 127.097 54.848H130.585C130.414 56.5333 129.699 57.8773 128.441 58.88C127.203 59.8827 125.561 60.384 123.513 60.384ZM142.311 44.704C145.937 44.704 147.751 46.6773 147.751 50.624V60H144.263V52.224C144.263 50.6027 144.017 49.44 143.527 48.736C143.036 48.032 142.193 47.68 140.999 47.68C139.868 47.68 138.993 48.0427 138.375 48.768C137.756 49.472 137.447 50.4853 137.447 51.808V60H133.959V37.6H137.447V47.168C138.407 45.5253 140.028 44.704 142.311 44.704ZM152.084 60V45.088H155.572V47.168C156.532 45.5253 158.153 44.704 160.436 44.704C164.062 44.704 165.876 46.6773 165.876 50.624V60H162.388V52.224C162.388 50.6027 162.142 49.44 161.652 48.736C161.161 48.032 160.318 47.68 159.124 47.68C157.993 47.68 157.118 48.0427 156.5 48.768C155.881 49.472 155.572 50.4853 155.572 51.808V60H152.084ZM182.689 58.176C181.281 59.648 179.371 60.384 176.961 60.384C174.55 60.384 172.63 59.648 171.201 58.176C169.793 56.6827 169.089 54.8053 169.089 52.544C169.089 50.2827 169.793 48.416 171.201 46.944C172.63 45.4507 174.55 44.704 176.961 44.704C179.371 44.704 181.281 45.4507 182.689 46.944C184.118 48.416 184.833 50.2827 184.833 52.544C184.833 54.8053 184.118 56.6827 182.689 58.176ZM173.729 55.968C174.518 56.8427 175.595 57.28 176.961 57.28C178.326 57.28 179.393 56.8427 180.161 55.968C180.95 55.0933 181.345 53.952 181.345 52.544C181.345 51.136 180.95 49.9947 180.161 49.12C179.393 48.2453 178.326 47.808 176.961 47.808C175.595 47.808 174.518 48.2453 173.729 49.12C172.961 49.9947 172.577 51.136 172.577 52.544C172.577 53.952 172.961 55.0933 173.729 55.968ZM188.178 60V37.6H191.666V60H188.178ZM208.626 58.176C207.218 59.648 205.309 60.384 202.898 60.384C200.488 60.384 198.568 59.648 197.138 58.176C195.73 56.6827 195.026 54.8053 195.026 52.544C195.026 50.2827 195.73 48.416 197.138 46.944C198.568 45.4507 200.488 44.704 202.898 44.704C205.309 44.704 207.218 45.4507 208.626 46.944C210.056 48.416 210.77 50.2827 210.77 52.544C210.77 54.8053 210.056 56.6827 208.626 58.176ZM199.666 55.968C200.456 56.8427 201.533 57.28 202.898 57.28C204.264 57.28 205.33 56.8427 206.098 55.968C206.888 55.0933 207.282 53.952 207.282 52.544C207.282 51.136 206.888 49.9947 206.098 49.12C205.33 48.2453 204.264 47.808 202.898 47.808C201.533 47.808 200.456 48.2453 199.666 49.12C198.898 49.9947 198.514 51.136 198.514 52.544C198.514 53.952 198.898 55.0933 199.666 55.968ZM225.404 45.088H228.892V59.36C228.892 62.3467 227.996 64.4907 226.204 65.792C225.03 66.6667 223.324 67.104 221.084 67.104C218.908 67.104 217.158 66.656 215.836 65.76C214.321 64.736 213.532 63.3813 213.468 61.696H217.116C217.436 63.3813 218.748 64.224 221.052 64.224C222.524 64.224 223.612 63.8613 224.316 63.136C225.041 62.432 225.404 61.2587 225.404 59.616V57.984C224.977 58.7093 224.305 59.296 223.388 59.744C222.492 60.1707 221.574 60.384 220.635 60.384C218.374 60.384 216.582 59.648 215.26 58.176C213.958 56.6827 213.308 54.8053 213.308 52.544C213.308 50.304 213.99 48.4373 215.356 46.944C216.742 45.4507 218.534 44.704 220.732 44.704C221.734 44.704 222.652 44.9173 223.484 45.344C224.316 45.7707 224.956 46.3573 225.404 47.104V45.088ZM221.148 57.28C222.513 57.28 223.59 56.832 224.38 55.936C225.169 55.0187 225.564 53.888 225.564 52.544C225.564 51.2 225.169 50.08 224.38 49.184C223.59 48.2667 222.513 47.808 221.148 47.808C219.846 47.808 218.79 48.256 217.98 49.152C217.19 50.0267 216.796 51.1573 216.796 52.544C216.796 53.9307 217.19 55.072 217.98 55.968C218.79 56.8427 219.846 57.28 221.148 57.28ZM243.509 45.088H246.997V60.064C246.997 62.3467 246.346 64.1173 245.045 65.376C243.786 66.528 242.101 67.104 239.989 67.104C237.792 67.104 236.085 66.592 234.869 65.568C233.802 64.6293 233.248 63.3387 233.205 61.696H236.725C236.81 62.5493 237.088 63.1787 237.557 63.584C238.048 64.0107 238.837 64.224 239.925 64.224C241.034 64.224 241.909 63.8613 242.549 63.136C243.189 62.432 243.509 61.3227 243.509 59.808V57.92C242.549 59.5627 240.949 60.384 238.709 60.384C236.938 60.384 235.573 59.8187 234.613 58.688C233.674 57.536 233.205 56.032 233.205 54.176V45.088H236.693V53.44C236.693 56.0213 237.77 57.312 239.925 57.312C241.098 57.312 241.984 56.896 242.581 56.064C243.2 55.232 243.509 54.144 243.509 52.8V45.088Z" fill="white"/>
</svg>
