<svg width="262" height="70" viewBox="0 0 262 70" fill="none" xmlns="http://www.w3.org/2000/svg">
<path d="M4 38.1379C4 14.9655 64 4 64 4C64 4 59.8621 64 34 64C17.4483 64 4 54.6897 4 38.1379Z" stroke="white" stroke-width="8" stroke-linecap="round" stroke-linejoin="round"/>
<path d="M4 63.9993C4 63.9993 17.4483 42.2752 35.0345 32.9648" stroke="white" stroke-width="8" stroke-linecap="round" stroke-linejoin="round"/>
<path d="M83.5568 31V7.72727H87.0682V17.8409H98.6705V7.72727H102.193V31H98.6705V20.8523H87.0682V31H83.5568ZM107.034 31V13.5455H110.432V31H107.034ZM108.75 10.8523C108.159 10.8523 107.652 10.6553 107.227 10.2614C106.811 9.85985 106.602 9.38257 106.602 8.82954C106.602 8.26894 106.811 7.79167 107.227 7.39773C107.652 6.99621 108.159 6.79545 108.75 6.79545C109.341 6.79545 109.845 6.99621 110.261 7.39773C110.686 7.79167 110.898 8.26894 110.898 8.82954C110.898 9.38257 110.686 9.85985 110.261 10.2614C109.845 10.6553 109.341 10.8523 108.75 10.8523ZM122.321 37.9091C120.935 37.9091 119.741 37.7273 118.741 37.3636C117.749 37 116.938 36.5189 116.31 35.9205C115.681 35.322 115.211 34.6667 114.901 33.9545L117.821 32.75C118.026 33.0833 118.298 33.4356 118.639 33.8068C118.988 34.1856 119.457 34.5076 120.048 34.7727C120.647 35.0379 121.416 35.1705 122.355 35.1705C123.643 35.1705 124.707 34.8561 125.548 34.2273C126.389 33.6061 126.81 32.6136 126.81 31.25V27.8182H126.594C126.389 28.1894 126.094 28.6023 125.707 29.0568C125.329 29.5114 124.806 29.9053 124.139 30.2386C123.473 30.572 122.605 30.7386 121.537 30.7386C120.158 30.7386 118.916 30.4167 117.81 29.7727C116.711 29.1212 115.84 28.1629 115.196 26.8977C114.56 25.625 114.241 24.0606 114.241 22.2045C114.241 20.3485 114.556 18.7576 115.185 17.4318C115.821 16.1061 116.692 15.0909 117.798 14.3864C118.904 13.6742 120.158 13.3182 121.56 13.3182C122.643 13.3182 123.518 13.5 124.185 13.8636C124.851 14.2197 125.37 14.6364 125.741 15.1136C126.12 15.5909 126.412 16.0114 126.616 16.375H126.866V13.5455H130.196V31.3864C130.196 32.8864 129.848 34.1174 129.151 35.0795C128.454 36.0417 127.51 36.7538 126.321 37.2159C125.139 37.678 123.806 37.9091 122.321 37.9091ZM122.287 27.9205C123.264 27.9205 124.09 27.6932 124.764 27.2386C125.446 26.7765 125.961 26.1174 126.31 25.2614C126.666 24.3977 126.844 23.3636 126.844 22.1591C126.844 20.9848 126.67 19.9508 126.321 19.0568C125.973 18.1629 125.461 17.4659 124.787 16.9659C124.113 16.4583 123.279 16.2045 122.287 16.2045C121.264 16.2045 120.412 16.4697 119.73 17C119.048 17.5227 118.533 18.2348 118.185 19.1364C117.844 20.0379 117.673 21.0455 117.673 22.1591C117.673 23.303 117.848 24.3068 118.196 25.1705C118.545 26.0341 119.06 26.7083 119.741 27.1932C120.431 27.678 121.279 27.9205 122.287 27.9205ZM138.151 20.6364V31H134.753V7.72727H138.105V16.3864H138.321C138.73 15.447 139.355 14.7008 140.196 14.1477C141.037 13.5947 142.135 13.3182 143.491 13.3182C144.688 13.3182 145.734 13.5644 146.628 14.0568C147.529 14.5492 148.226 15.2841 148.719 16.2614C149.219 17.2311 149.469 18.4432 149.469 19.8977V31H146.071V20.3068C146.071 19.0265 145.741 18.0341 145.082 17.3295C144.423 16.6174 143.507 16.2614 142.332 16.2614C141.529 16.2614 140.81 16.4318 140.173 16.7727C139.545 17.1136 139.048 17.6136 138.685 18.2727C138.329 18.9242 138.151 19.7121 138.151 20.6364ZM161.321 37.9091C159.935 37.9091 158.741 37.7273 157.741 37.3636C156.749 37 155.938 36.5189 155.31 35.9205C154.681 35.322 154.211 34.6667 153.901 33.9545L156.821 32.75C157.026 33.0833 157.298 33.4356 157.639 33.8068C157.988 34.1856 158.457 34.5076 159.048 34.7727C159.647 35.0379 160.416 35.1705 161.355 35.1705C162.643 35.1705 163.707 34.8561 164.548 34.2273C165.389 33.6061 165.81 32.6136 165.81 31.25V27.8182H165.594C165.389 28.1894 165.094 28.6023 164.707 29.0568C164.329 29.5114 163.806 29.9053 163.139 30.2386C162.473 30.572 161.605 30.7386 160.537 30.7386C159.158 30.7386 157.916 30.4167 156.81 29.7727C155.711 29.1212 154.84 28.1629 154.196 26.8977C153.56 25.625 153.241 24.0606 153.241 22.2045C153.241 20.3485 153.556 18.7576 154.185 17.4318C154.821 16.1061 155.692 15.0909 156.798 14.3864C157.904 13.6742 159.158 13.3182 160.56 13.3182C161.643 13.3182 162.518 13.5 163.185 13.8636C163.851 14.2197 164.37 14.6364 164.741 15.1136C165.12 15.5909 165.412 16.0114 165.616 16.375H165.866V13.5455H169.196V31.3864C169.196 32.8864 168.848 34.1174 168.151 35.0795C167.454 36.0417 166.51 36.7538 165.321 37.2159C164.139 37.678 162.806 37.9091 161.321 37.9091ZM161.287 27.9205C162.264 27.9205 163.09 27.6932 163.764 27.2386C164.446 26.7765 164.961 26.1174 165.31 25.2614C165.666 24.3977 165.844 23.3636 165.844 22.1591C165.844 20.9848 165.67 19.9508 165.321 19.0568C164.973 18.1629 164.461 17.4659 163.787 16.9659C163.113 16.4583 162.279 16.2045 161.287 16.2045C160.264 16.2045 159.412 16.4697 158.73 17C158.048 17.5227 157.533 18.2348 157.185 19.1364C156.844 20.0379 156.673 21.0455 156.673 22.1591C156.673 23.303 156.848 24.3068 157.196 25.1705C157.545 26.0341 158.06 26.7083 158.741 27.1932C159.431 27.678 160.279 27.9205 161.287 27.9205ZM173.753 31V13.5455H177.037V16.3182H177.219C177.537 15.3788 178.098 14.6402 178.901 14.1023C179.711 13.5568 180.628 13.2841 181.651 13.2841C181.863 13.2841 182.113 13.2917 182.401 13.3068C182.696 13.322 182.927 13.3409 183.094 13.3636V16.6136C182.957 16.5758 182.715 16.5341 182.366 16.4886C182.018 16.4356 181.67 16.4091 181.321 16.4091C180.518 16.4091 179.802 16.5795 179.173 16.9205C178.552 17.2538 178.06 17.7197 177.696 18.3182C177.332 18.9091 177.151 19.5833 177.151 20.3409V31H173.753ZM192.932 31.3523C191.212 31.3523 189.731 30.9848 188.489 30.25C187.254 29.5076 186.299 28.4659 185.625 27.125C184.958 25.7765 184.625 24.197 184.625 22.3864C184.625 20.5985 184.958 19.0227 185.625 17.6591C186.299 16.2955 187.239 15.2311 188.443 14.4659C189.655 13.7008 191.072 13.3182 192.693 13.3182C193.678 13.3182 194.633 13.4811 195.557 13.8068C196.481 14.1326 197.311 14.6439 198.045 15.3409C198.78 16.0379 199.36 16.9432 199.784 18.0568C200.208 19.1629 200.42 20.5076 200.42 22.0909V23.2955H186.545V20.75H197.091C197.091 19.8561 196.909 19.0644 196.545 18.375C196.182 17.678 195.67 17.1288 195.011 16.7273C194.36 16.3258 193.595 16.125 192.716 16.125C191.761 16.125 190.928 16.3598 190.216 16.8295C189.511 17.2917 188.966 17.8977 188.58 18.6477C188.201 19.3902 188.011 20.197 188.011 21.0682V23.0568C188.011 24.2235 188.216 25.2159 188.625 26.0341C189.042 26.8523 189.621 27.4773 190.364 27.9091C191.106 28.3333 191.973 28.5455 192.966 28.5455C193.61 28.5455 194.197 28.4545 194.727 28.2727C195.258 28.0833 195.716 27.803 196.102 27.4318C196.489 27.0606 196.784 26.6023 196.989 26.0568L200.205 26.6364C199.947 27.5833 199.485 28.4129 198.818 29.125C198.159 29.8295 197.33 30.3788 196.33 30.7727C195.337 31.1591 194.205 31.3523 192.932 31.3523ZM211.713 31.3523C209.993 31.3523 208.512 30.9848 207.27 30.25C206.035 29.5076 205.08 28.4659 204.406 27.125C203.74 25.7765 203.406 24.197 203.406 22.3864C203.406 20.5985 203.74 19.0227 204.406 17.6591C205.08 16.2955 206.02 15.2311 207.224 14.4659C208.437 13.7008 209.853 13.3182 211.474 13.3182C212.459 13.3182 213.414 13.4811 214.338 13.8068C215.262 14.1326 216.092 14.6439 216.827 15.3409C217.562 16.0379 218.141 16.9432 218.565 18.0568C218.99 19.1629 219.202 20.5076 219.202 22.0909V23.2955H205.327V20.75H215.872C215.872 19.8561 215.69 19.0644 215.327 18.375C214.963 17.678 214.452 17.1288 213.793 16.7273C213.141 16.3258 212.376 16.125 211.497 16.125C210.543 16.125 209.709 16.3598 208.997 16.8295C208.293 17.2917 207.747 17.8977 207.361 18.6477C206.982 19.3902 206.793 20.197 206.793 21.0682V23.0568C206.793 24.2235 206.997 25.2159 207.406 26.0341C207.823 26.8523 208.402 27.4773 209.145 27.9091C209.887 28.3333 210.755 28.5455 211.747 28.5455C212.391 28.5455 212.978 28.4545 213.509 28.2727C214.039 28.0833 214.497 27.803 214.884 27.4318C215.27 27.0606 215.565 26.6023 215.77 26.0568L218.986 26.6364C218.728 27.5833 218.266 28.4129 217.599 29.125C216.94 29.8295 216.111 30.3788 215.111 30.7727C214.118 31.1591 212.986 31.3523 211.713 31.3523ZM226.369 20.6364V31H222.972V13.5455H226.233V16.3864H226.449C226.85 15.4621 227.479 14.7197 228.335 14.1591C229.199 13.5985 230.286 13.3182 231.597 13.3182C232.786 13.3182 233.828 13.5682 234.722 14.0682C235.616 14.5606 236.309 15.2955 236.801 16.2727C237.294 17.25 237.54 18.4583 237.54 19.8977V31H234.142V20.3068C234.142 19.0417 233.813 18.053 233.153 17.3409C232.494 16.6212 231.589 16.2614 230.438 16.2614C229.65 16.2614 228.949 16.4318 228.335 16.7727C227.729 17.1136 227.248 17.6136 226.892 18.2727C226.544 18.9242 226.369 19.7121 226.369 20.6364Z" fill="white"/>
<path d="M84.4091 41.75V38.7273H102.42V41.75H95.1591V62H91.6591V41.75H84.4091ZM111.119 62.3523C109.4 62.3523 107.919 61.9848 106.676 61.25C105.441 60.5076 104.487 59.4659 103.812 58.125C103.146 56.7765 102.812 55.197 102.812 53.3864C102.812 51.5985 103.146 50.0227 103.812 48.6591C104.487 47.2955 105.426 46.2311 106.631 45.4659C107.843 44.7008 109.259 44.3182 110.881 44.3182C111.866 44.3182 112.82 44.4811 113.744 44.8068C114.669 45.1326 115.498 45.6439 116.233 46.3409C116.968 47.0379 117.547 47.9432 117.972 49.0568C118.396 50.1629 118.608 51.5076 118.608 53.0909V54.2955H104.733V51.75H115.278C115.278 50.8561 115.097 50.0644 114.733 49.375C114.369 48.678 113.858 48.1288 113.199 47.7273C112.547 47.3258 111.782 47.125 110.903 47.125C109.949 47.125 109.116 47.3598 108.403 47.8295C107.699 48.2917 107.153 48.8977 106.767 49.6477C106.388 50.3902 106.199 51.197 106.199 52.0682V54.0568C106.199 55.2235 106.403 56.2159 106.812 57.0341C107.229 57.8523 107.809 58.4773 108.551 58.9091C109.294 59.3333 110.161 59.5455 111.153 59.5455C111.797 59.5455 112.384 59.4545 112.915 59.2727C113.445 59.0833 113.903 58.803 114.29 58.4318C114.676 58.0606 114.972 57.6023 115.176 57.0568L118.392 57.6364C118.134 58.5833 117.672 59.4129 117.006 60.125C116.347 60.8295 115.517 61.3788 114.517 61.7727C113.525 62.1591 112.392 62.3523 111.119 62.3523ZM129.73 62.3523C128.041 62.3523 126.586 61.9697 125.366 61.2045C124.154 60.4318 123.223 59.3674 122.571 58.0114C121.92 56.6553 121.594 55.1023 121.594 53.3523C121.594 51.5795 121.927 50.0152 122.594 48.6591C123.26 47.2955 124.2 46.2311 125.412 45.4659C126.624 44.7008 128.052 44.3182 129.696 44.3182C131.022 44.3182 132.204 44.5644 133.241 45.0568C134.279 45.5417 135.116 46.2235 135.753 47.1023C136.397 47.9811 136.779 49.0076 136.901 50.1818H133.594C133.412 49.3636 132.995 48.6591 132.344 48.0682C131.7 47.4773 130.836 47.1818 129.753 47.1818C128.806 47.1818 127.976 47.4318 127.264 47.9318C126.56 48.4242 126.01 49.1288 125.616 50.0455C125.223 50.9545 125.026 52.0303 125.026 53.2727C125.026 54.5455 125.219 55.6439 125.605 56.5682C125.991 57.4924 126.537 58.2083 127.241 58.7159C127.954 59.2235 128.791 59.4773 129.753 59.4773C130.397 59.4773 130.98 59.3598 131.503 59.125C132.033 58.8826 132.476 58.5379 132.832 58.0909C133.196 57.6439 133.45 57.1061 133.594 56.4773H136.901C136.779 57.6061 136.412 58.6136 135.798 59.5C135.185 60.3864 134.363 61.0833 133.332 61.5909C132.31 62.0985 131.109 62.3523 129.73 62.3523ZM143.932 51.6364V62H140.534V38.7273H143.886V47.3864H144.102C144.511 46.447 145.136 45.7008 145.977 45.1477C146.818 44.5947 147.917 44.3182 149.273 44.3182C150.47 44.3182 151.515 44.5644 152.409 45.0568C153.311 45.5492 154.008 46.2841 154.5 47.2614C155 48.2311 155.25 49.4432 155.25 50.8977V62H151.852V51.3068C151.852 50.0265 151.523 49.0341 150.864 48.3295C150.205 47.6174 149.288 47.2614 148.114 47.2614C147.311 47.2614 146.591 47.4318 145.955 47.7727C145.326 48.1136 144.83 48.6136 144.466 49.2727C144.11 49.9242 143.932 50.7121 143.932 51.6364ZM163.182 51.6364V62H159.784V44.5455H163.045V47.3864H163.261C163.663 46.4621 164.292 45.7197 165.148 45.1591C166.011 44.5985 167.098 44.3182 168.409 44.3182C169.598 44.3182 170.64 44.5682 171.534 45.0682C172.428 45.5606 173.121 46.2955 173.614 47.2727C174.106 48.25 174.352 49.4583 174.352 50.8977V62H170.955V51.3068C170.955 50.0417 170.625 49.053 169.966 48.3409C169.307 47.6212 168.402 47.2614 167.25 47.2614C166.462 47.2614 165.761 47.4318 165.148 47.7727C164.542 48.1136 164.061 48.6136 163.705 49.2727C163.356 49.9242 163.182 50.7121 163.182 51.6364ZM186.261 62.3523C184.625 62.3523 183.197 61.9773 181.977 61.2273C180.758 60.4773 179.811 59.428 179.136 58.0795C178.462 56.7311 178.125 55.1553 178.125 53.3523C178.125 51.5417 178.462 49.9583 179.136 48.6023C179.811 47.2462 180.758 46.1932 181.977 45.4432C183.197 44.6932 184.625 44.3182 186.261 44.3182C187.898 44.3182 189.326 44.6932 190.545 45.4432C191.765 46.1932 192.712 47.2462 193.386 48.6023C194.061 49.9583 194.398 51.5417 194.398 53.3523C194.398 55.1553 194.061 56.7311 193.386 58.0795C192.712 59.428 191.765 60.4773 190.545 61.2273C189.326 61.9773 187.898 62.3523 186.261 62.3523ZM186.273 59.5C187.333 59.5 188.212 59.2197 188.909 58.6591C189.606 58.0985 190.121 57.3523 190.455 56.4205C190.795 55.4886 190.966 54.4621 190.966 53.3409C190.966 52.2273 190.795 51.2045 190.455 50.2727C190.121 49.3333 189.606 48.5795 188.909 48.0114C188.212 47.4432 187.333 47.1591 186.273 47.1591C185.205 47.1591 184.318 47.4432 183.614 48.0114C182.917 48.5795 182.398 49.3333 182.057 50.2727C181.723 51.2045 181.557 52.2273 181.557 53.3409C181.557 54.4621 181.723 55.4886 182.057 56.4205C182.398 57.3523 182.917 58.0985 183.614 58.6591C184.318 59.2197 185.205 59.5 186.273 59.5ZM201.588 38.7273V62H198.19V38.7273H201.588ZM213.511 62.3523C211.875 62.3523 210.447 61.9773 209.227 61.2273C208.008 60.4773 207.061 59.428 206.386 58.0795C205.712 56.7311 205.375 55.1553 205.375 53.3523C205.375 51.5417 205.712 49.9583 206.386 48.6023C207.061 47.2462 208.008 46.1932 209.227 45.4432C210.447 44.6932 211.875 44.3182 213.511 44.3182C215.148 44.3182 216.576 44.6932 217.795 45.4432C219.015 46.1932 219.962 47.2462 220.636 48.6023C221.311 49.9583 221.648 51.5417 221.648 53.3523C221.648 55.1553 221.311 56.7311 220.636 58.0795C219.962 59.428 219.015 60.4773 217.795 61.2273C216.576 61.9773 215.148 62.3523 213.511 62.3523ZM213.523 59.5C214.583 59.5 215.462 59.2197 216.159 58.6591C216.856 58.0985 217.371 57.3523 217.705 56.4205C218.045 55.4886 218.216 54.4621 218.216 53.3409C218.216 52.2273 218.045 51.2045 217.705 50.2727C217.371 49.3333 216.856 48.5795 216.159 48.0114C215.462 47.4432 214.583 47.1591 213.523 47.1591C212.455 47.1591 211.568 47.4432 210.864 48.0114C210.167 48.5795 209.648 49.3333 209.307 50.2727C208.973 51.2045 208.807 52.2273 208.807 53.3409C208.807 54.4621 208.973 55.4886 209.307 56.4205C209.648 57.3523 210.167 58.0985 210.864 58.6591C211.568 59.2197 212.455 59.5 213.523 59.5ZM232.759 68.9091C231.372 68.9091 230.179 68.7273 229.179 68.3636C228.187 68 227.376 67.5189 226.747 66.9205C226.118 66.322 225.649 65.6667 225.338 64.9545L228.259 63.75C228.463 64.0833 228.736 64.4356 229.077 64.8068C229.425 65.1856 229.895 65.5076 230.486 65.7727C231.084 66.0379 231.853 66.1705 232.793 66.1705C234.08 66.1705 235.145 65.8561 235.986 65.2273C236.827 64.6061 237.247 63.6136 237.247 62.25V58.8182H237.031C236.827 59.1894 236.531 59.6023 236.145 60.0568C235.766 60.5114 235.243 60.9053 234.577 61.2386C233.91 61.572 233.043 61.7386 231.974 61.7386C230.596 61.7386 229.353 61.4167 228.247 60.7727C227.149 60.1212 226.277 59.1629 225.634 57.8977C224.997 56.625 224.679 55.0606 224.679 53.2045C224.679 51.3485 224.993 49.7576 225.622 48.4318C226.259 47.1061 227.13 46.0909 228.236 45.3864C229.342 44.6742 230.596 44.3182 231.997 44.3182C233.08 44.3182 233.955 44.5 234.622 44.8636C235.289 45.2197 235.808 45.6364 236.179 46.1136C236.558 46.5909 236.849 47.0114 237.054 47.375H237.304V44.5455H240.634V62.3864C240.634 63.8864 240.285 65.1174 239.588 66.0795C238.891 67.0417 237.948 67.7538 236.759 68.2159C235.577 68.678 234.243 68.9091 232.759 68.9091ZM232.724 58.9205C233.702 58.9205 234.527 58.6932 235.202 58.2386C235.884 57.7765 236.399 57.1174 236.747 56.2614C237.103 55.3977 237.281 54.3636 237.281 53.1591C237.281 51.9848 237.107 50.9508 236.759 50.0568C236.41 49.1629 235.899 48.4659 235.224 47.9659C234.55 47.4583 233.717 47.2045 232.724 47.2045C231.702 47.2045 230.849 47.4697 230.168 48C229.486 48.5227 228.971 49.2348 228.622 50.1364C228.281 51.0379 228.111 52.0455 228.111 53.1591C228.111 54.303 228.285 55.3068 228.634 56.1705C228.982 57.0341 229.497 57.7083 230.179 58.1932C230.868 58.678 231.717 58.9205 232.724 58.9205ZM247.338 68.5455C246.83 68.5455 246.368 68.5038 245.952 68.4205C245.535 68.3447 245.224 68.2614 245.02 68.1705L245.838 65.3864C246.459 65.553 247.012 65.625 247.497 65.6023C247.982 65.5795 248.41 65.3977 248.781 65.0568C249.16 64.7159 249.493 64.1591 249.781 63.3864L250.202 62.2273L243.815 44.5455H247.452L251.872 58.0909H252.054L256.474 44.5455H260.122L252.929 64.3295C252.596 65.2386 252.171 66.0076 251.656 66.6364C251.141 67.2727 250.527 67.75 249.815 68.0682C249.103 68.3864 248.277 68.5455 247.338 68.5455Z" fill="white"/>
</svg>
