<svg width="103" height="22" viewBox="0 0 103 22" fill="none" xmlns="http://www.w3.org/2000/svg">
<path fill-rule="evenodd" clip-rule="evenodd" d="M100.982 9.65543V7.89721H98.7986V5.16385L98.7251 5.18648L96.6743 5.81394L96.6339 5.82623V7.89731H93.3971V6.74354C93.3971 6.2063 93.5172 5.79518 93.7539 5.521C93.989 5.25011 94.3253 5.1124 94.7542 5.1124C95.0625 5.1124 95.3818 5.18503 95.7031 5.32826L95.7836 5.36423V3.51259L95.7457 3.49866C95.446 3.39093 95.0384 3.33667 94.533 3.33667C93.8962 3.33667 93.3176 3.47526 92.8129 3.74992C92.308 4.02497 91.9108 4.41762 91.6325 4.91684C91.3553 5.41549 91.2146 5.99141 91.2146 6.62874V7.89721H89.6943V9.65543H91.2146V17.0625H93.3971V9.65543H96.6339V14.3625C96.6339 16.3011 97.5483 17.2835 99.3517 17.2835C99.648 17.2835 99.9599 17.2488 100.278 17.1808C100.603 17.1109 100.823 17.0412 100.953 16.9667L100.982 16.9497V15.1753L100.893 15.234C100.775 15.3129 100.627 15.3774 100.454 15.4254C100.281 15.4742 100.136 15.4987 100.023 15.4987C99.6008 15.4987 99.2883 15.3848 99.0943 15.1602C98.8982 14.9335 98.7987 14.5371 98.7987 13.9825V9.65543H100.982ZM84.8204 15.499C84.0282 15.499 83.4036 15.2363 82.9635 14.7189C82.5207 14.1989 82.2963 13.4575 82.2963 12.5155C82.2963 11.5436 82.5207 10.783 82.9637 10.2538C83.4041 9.72806 84.0227 9.46123 84.8026 9.46123C85.5593 9.46123 86.1618 9.71607 86.5933 10.2191C87.0269 10.7247 87.2471 11.4792 87.2471 12.4624C87.2471 13.4577 87.0401 14.2222 86.632 14.7336C86.2267 15.2411 85.6172 15.499 84.8204 15.499ZM84.9174 7.67642C83.4061 7.67642 82.2057 8.11926 81.3498 8.99267C80.4944 9.86617 80.0608 11.075 80.0608 12.5858C80.0608 14.0208 80.4841 15.1751 81.3191 16.016C82.1541 16.8572 83.2905 17.2833 84.6964 17.2833C86.1614 17.2833 87.3379 16.8343 88.1934 15.9488C89.0488 15.0642 89.4822 13.8668 89.4822 12.3913C89.4822 10.9339 89.0755 9.771 88.2731 8.9357C87.4703 8.10002 86.3411 7.67642 84.9174 7.67642ZM76.5419 7.67642C75.5139 7.67642 74.6635 7.93938 74.0139 8.45785C73.3603 8.97942 73.0288 9.66346 73.0288 10.4912C73.0288 10.9215 73.1003 11.3037 73.2412 11.6279C73.3828 11.9531 73.6021 12.2395 73.8934 12.4798C74.1825 12.7182 74.6287 12.9679 75.22 13.222C75.7171 13.4265 76.0878 13.5995 76.3233 13.7359C76.5534 13.8696 76.7168 14.0039 76.809 14.1347C76.8987 14.2628 76.9442 14.438 76.9442 14.6543C76.9442 15.27 76.483 15.5696 75.5342 15.5696C75.1823 15.5696 74.7808 15.4961 74.3411 15.3513C73.9044 15.2086 73.4923 14.9996 73.1192 14.7317L73.0286 14.6667V16.768L73.0619 16.7835C73.3707 16.926 73.76 17.0462 74.2189 17.1408C74.6769 17.2355 75.0931 17.2837 75.4546 17.2837C76.5702 17.2837 77.4685 17.0195 78.124 16.4979C78.7837 15.9727 79.118 15.2725 79.118 14.4162C79.118 13.7984 78.9381 13.2686 78.5833 12.8413C78.231 12.4175 77.6195 12.0284 76.7666 11.6845C76.0871 11.4118 75.6518 11.1854 75.4722 11.0116C75.2991 10.8437 75.2112 10.6063 75.2112 10.3056C75.2112 10.0391 75.3197 9.82555 75.5424 9.65263C75.7669 9.47884 76.0794 9.39044 76.4712 9.39044C76.8349 9.39044 77.2069 9.44789 77.5769 9.56046C77.9467 9.67303 78.2714 9.82381 78.5425 10.0082L78.6317 10.0692V8.07593L78.5974 8.06123C78.3473 7.95398 78.0176 7.8622 77.617 7.78773C77.2182 7.71375 76.8565 7.67642 76.5419 7.67642ZM67.3391 15.499C66.5472 15.499 65.9224 15.2363 65.4824 14.7189C65.0394 14.1989 64.8154 13.4577 64.8154 12.5155C64.8154 11.5436 65.0397 10.783 65.4828 10.2538C65.9229 9.72806 66.5414 9.46123 67.3216 9.46123C68.0781 9.46123 68.6805 9.71607 69.1121 10.2191C69.5459 10.7247 69.7659 11.4792 69.7659 12.4624C69.7659 13.4577 69.5589 14.2222 69.1507 14.7336C68.7454 15.2411 68.1362 15.499 67.3391 15.499ZM67.4364 7.67642C65.9247 7.67642 64.7242 8.11926 63.8688 8.99267C63.0135 9.86617 62.5796 11.075 62.5796 12.5858C62.5796 14.0214 63.0032 15.1751 63.8382 16.016C64.6732 16.8572 65.8094 17.2833 67.2153 17.2833C68.6801 17.2833 69.8569 16.8343 70.7124 15.9488C71.5677 15.0642 72.0012 13.8668 72.0012 12.3913C72.0012 10.9339 71.5944 9.771 70.7918 8.9357C69.9888 8.10002 68.8598 7.67642 67.4364 7.67642ZM59.2666 9.48445V7.89721H57.1107V17.0623H59.2666V12.374C59.2666 11.5768 59.4473 10.9219 59.804 10.4272C60.1561 9.93841 60.6254 9.69073 61.1983 9.69073C61.3925 9.69073 61.6105 9.72274 61.8466 9.78609C62.0802 9.84905 62.2495 9.91742 62.3493 9.98938L62.4399 10.055V7.88154L62.405 7.86655C62.2042 7.78125 61.9202 7.73822 61.5608 7.73822C61.019 7.73822 60.5342 7.9123 60.1189 8.25505C59.7544 8.5563 59.491 8.96936 59.2895 9.48445H59.2666ZM53.2499 7.67642C52.2608 7.67642 51.3786 7.88851 50.6282 8.30659C49.8763 8.72564 49.2947 9.3239 48.8991 10.0846C48.5052 10.8435 48.3052 11.73 48.3052 12.7186C48.3052 13.5845 48.4991 14.3792 48.8824 15.0796C49.2658 15.7812 49.8086 16.33 50.4956 16.7107C51.1817 17.0908 51.9746 17.2836 52.8526 17.2836C53.8771 17.2836 54.7519 17.0787 55.4532 16.6748L55.4816 16.6585V14.6834L55.391 14.7495C55.0733 14.981 54.7182 15.1657 54.3362 15.2988C53.9552 15.4317 53.6078 15.499 53.3032 15.499C52.4572 15.499 51.7781 15.2343 51.2852 14.7124C50.7912 14.1899 50.5407 13.4561 50.5407 12.5328C50.5407 11.6037 50.8019 10.8511 51.3167 10.2958C51.8299 9.74209 52.5103 9.46123 53.3387 9.46123C54.0473 9.46123 54.7379 9.70118 55.3912 10.1751L55.4816 10.2407V8.15959L55.4524 8.14315C55.2065 8.00553 54.8712 7.89189 54.455 7.80572C54.0405 7.71975 53.6351 7.67642 53.2499 7.67642ZM46.8204 7.89731H44.6645V17.0623H46.8204V7.89731ZM45.7645 3.99296C45.4096 3.99296 45.1002 4.11375 44.8459 4.35311C44.5906 4.59315 44.4611 4.89537 44.4611 5.25205C44.4611 5.60311 44.589 5.89982 44.8419 6.13348C45.0932 6.36646 45.4036 6.48454 45.7646 6.48454C46.1254 6.48454 46.437 6.36646 46.6913 6.13387C46.9472 5.89982 47.0769 5.60321 47.0769 5.25205C47.0769 4.90785 46.9506 4.60872 46.7018 4.36278C46.4531 4.11733 46.1377 3.99296 45.7645 3.99296ZM40.3854 7.2211V17.0623H42.5855V4.27352H39.5404L35.6698 13.7726L31.9136 4.27352H28.7444V17.0622H30.812V7.22013H30.883L34.8495 17.0623H36.4098L40.3144 7.2211H40.3854Z" fill="#ADB8CC"/>
<path fill-rule="evenodd" clip-rule="evenodd" d="M1.00653 10.142H11.1485V0H1.00653V10.142ZM12.2046 10.142H22.3464V0H12.2046V10.142ZM11.1482 21.3438H1.00653V11.2019H11.1482V21.3438ZM12.2046 21.3438H22.3464V11.2019H12.2046V21.3438Z" fill="#ADB8CC"/>
</svg>
