<svg width="360" height="68" viewBox="0 0 360 68" fill="none" xmlns="http://www.w3.org/2000/svg">
<path d="M60.5086 67.0357C41.0072 67.0357 21.5058 67.0357 2.01146 67.0357C1.50158 67.0357 0.984708 67.0216 0.474823 67.0498C0.111617 67.0709 -0.00712344 66.909 -0.000138712 66.5712C0.00684602 65.9588 -0.000138712 65.3464 -0.000138712 64.727C-0.000138712 59.5044 -0.000138712 54.2747 -0.000138712 49.0521C-0.000138712 48.7424 0.0557391 48.4256 0.0417697 48.1159C0.0347849 47.7429 0.181464 47.6232 0.551655 47.6303C2.52833 47.6443 4.50501 47.6303 6.48169 47.6303C38.381 47.6303 70.2872 47.6303 102.186 47.6303C102.815 47.6303 103.437 47.6232 104.065 47.6303C104.331 47.6303 104.47 47.5317 104.47 47.2643C104.47 46.9827 104.463 46.6941 104.463 46.4126C104.463 31.5682 104.463 16.7167 104.463 1.87227C104.463 1.45699 104.463 1.04171 104.45 0.633475C104.436 0.140772 104.47 0.105579 104.98 0.112618C108.717 0.133734 112.461 0.154849 116.198 0.168927C119.027 0.175965 121.855 0.168927 124.691 0.161888C124.908 0.161888 125.013 0.239313 125.131 0.415278C125.627 1.16841 125.921 2.02712 126.319 2.82952C126.556 3.31518 126.884 3.76566 127.108 4.2302C127.352 4.75106 127.625 5.26488 127.855 5.79277C128.617 7.59466 129.595 9.29096 130.433 11.0506C131.166 12.578 131.92 14.0983 132.675 15.6187C133.408 17.0968 134.177 18.5608 134.875 20.06C135.546 21.5241 136.363 22.9177 137.11 24.3465C137.229 24.5788 137.424 24.7548 137.599 24.9308C137.774 25.1067 137.892 25.0856 137.927 24.8252C137.997 24.3677 137.983 23.9102 137.962 23.4597C137.878 21.5593 137.92 19.6659 137.941 17.7654C137.976 15.2104 137.983 12.6554 137.934 10.1004C137.899 8.46041 137.934 6.82041 137.962 5.18042C137.983 3.65304 137.962 2.12566 137.913 0.598282C137.892 0 137.906 0 138.493 0C144.437 0 150.381 0 156.332 0C156.76 0 156.975 0.222889 156.975 0.668668C156.975 18.7297 156.975 36.7908 156.975 54.8448C156.975 58.6598 156.975 62.4677 156.975 66.2826C156.975 66.8668 156.975 66.8738 156.381 66.8738C152.288 66.8738 148.188 66.8738 144.095 66.8738C143.788 66.8738 143.529 66.8597 143.459 66.4797C143.445 66.4022 143.382 66.3107 143.32 66.2685C142.544 65.811 142.048 65.0579 141.392 64.4666C140.721 63.8613 139.995 63.2701 139.541 62.4395C139.282 61.9679 138.807 61.6441 138.43 61.2641C137.648 60.4757 136.866 59.6874 136.076 58.9061C135.986 58.8146 135.888 58.7161 135.776 58.6809C135.56 58.6105 135.49 58.4838 135.42 58.2726C135.266 57.794 134.833 57.5195 134.463 57.2169C134.274 57.062 134.093 56.9283 133.967 56.7101C133.792 56.4144 133.576 56.1399 133.282 55.9499C132.912 55.7106 132.647 55.3939 132.409 55.0278C131.683 53.9369 130.649 53.1345 129.762 52.1913C128.854 51.227 127.946 50.2627 127.017 49.3195C126.039 48.32 125.041 47.3487 124.056 46.3633C123.259 45.568 122.645 44.6037 121.8 43.8505C121.674 43.7379 121.555 43.6112 121.436 43.4916C121.374 43.4353 121.311 43.3508 121.22 43.386C121.122 43.4282 121.15 43.5338 121.15 43.6112C121.15 43.8224 121.15 44.0406 121.15 44.2517C121.15 51.6352 121.15 59.0117 121.15 66.3952C121.15 67.1131 121.15 67.1061 120.438 67.0498C120.151 67.0287 119.872 67.0357 119.585 67.0357C99.9025 67.0357 80.2195 67.0357 60.5295 67.0357H60.5086Z" fill="#ADB8CC"/>
<path d="M294.546 53.3729C294.546 54.6469 294.546 55.9139 294.546 57.1878C294.546 57.8354 294.693 58.4337 295.077 58.9616C295.105 58.9968 295.147 59.032 295.147 59.0672C295.21 59.9329 295.845 60.5101 296.187 61.2421C296.299 61.4884 296.453 61.6714 296.718 61.7629C296.809 61.7981 296.921 61.8333 296.977 61.9037C297.487 62.502 298.255 62.6005 298.919 62.6568C299.834 62.7413 300.783 62.8469 301.705 62.5865C303.277 62.143 304.863 61.7207 306.322 60.9746C307.468 60.3834 308.585 59.7147 309.542 58.8278C310.15 58.2648 310.709 57.6454 311.316 57.0823C312.42 56.0546 313.419 54.8862 314.306 53.6474C314.376 53.5559 314.425 53.4433 314.501 53.3659C315.137 52.7746 315.277 52.0004 315.312 51.1839C315.312 51.0572 315.312 50.9235 315.34 50.8038C315.745 49.4806 315.486 48.108 315.654 46.7707C315.898 44.814 315.766 42.808 316.464 40.9075C316.66 40.3796 316.695 39.7884 316.89 39.2535C317.323 38.0499 317.547 36.7759 318.189 35.6567C318.797 34.5939 319.482 33.5804 320.313 32.6724C321.367 31.5321 322.695 30.7438 323.938 29.8429C324.72 29.2798 325.607 28.9419 326.494 28.5829C326.92 28.407 327.353 28.224 327.779 28.048C328.017 27.9495 328.282 27.7735 328.499 27.8157C329.351 27.9847 330.133 27.5835 330.964 27.5975C331.195 27.5975 331.46 27.6679 331.6 27.3723C331.635 27.2949 331.726 27.3019 331.789 27.3512C332.159 27.6398 332.606 27.5623 333.018 27.5764C333.542 27.5975 334.031 27.6961 334.492 27.9424C335.127 28.2873 335.826 28.4985 336.42 28.9489C336.615 29.0968 336.776 29.2586 336.929 29.4487C337.342 29.9766 337.579 29.9273 338.187 29.7654C338.857 29.5965 339.458 29.2516 340.142 29.132C340.764 29.0264 341.435 29.0334 341.986 28.6252C342.133 28.5196 342.252 28.6322 342.364 28.7308C342.538 28.8926 342.706 28.9208 342.873 28.7237C342.95 28.6322 343.048 28.5759 343.174 28.59C344.18 28.6744 345.192 28.5477 346.191 28.773C346.457 28.8293 346.722 28.8645 346.966 28.9982C347.134 29.0968 347.295 29.2235 347.511 29.0897C347.581 29.0475 347.679 29.0897 347.742 29.1531C348.405 29.8851 349.348 30.2089 350.089 30.8283C350.745 31.3773 351.36 31.9333 351.807 32.7005C352.24 33.4466 352.722 34.1646 353.12 34.9318C353.274 35.2274 353.33 35.5089 353.392 35.8116C353.518 36.431 353.616 36.4943 354.217 36.4169C354.608 36.3676 354.971 36.2761 355.257 35.9805C355.313 35.9242 355.425 35.8468 355.474 35.8679C356.137 36.1354 356.724 35.6849 357.367 35.6708C358.163 35.6497 358.952 35.8046 359.749 35.706C359.944 35.6849 360 35.8609 360 36.0298C359.986 37.5431 359.979 39.0564 359.965 40.5697C359.965 40.9216 359.783 41.0554 359.427 41.0624C358.428 41.0905 357.472 41.4073 356.494 41.5762C355.942 41.6677 355.495 42.0126 354.929 42.0619C354.566 42.09 354.266 42.3364 354.293 42.7446C354.398 44.1312 354.084 45.4686 353.826 46.8059C353.302 49.4595 352.82 52.113 351.688 54.6047C351.241 55.5901 350.913 56.6318 350.571 57.6594C350.228 58.68 349.621 59.5458 349.006 60.3904C348.615 60.9324 348.21 61.4884 347.923 62.0656C347.7 62.5302 347.4 62.8047 347.043 63.0932C346.876 63.227 346.736 63.3889 346.589 63.5508C345.618 64.6417 344.368 65.3526 343.195 66.1761C342.664 66.1128 342.287 66.514 341.854 66.704C341.337 66.9222 340.799 66.8448 340.296 67.0278C339.793 67.2038 339.227 67.239 338.725 67.422C338.229 67.612 337.74 67.5064 337.258 67.4853C336.908 67.4713 336.559 67.4079 336.203 67.4009C335.672 67.4009 335.169 67.3023 334.673 67.0701C334.408 66.9434 334.101 66.69 333.772 66.9926C333.737 67.0278 333.702 67.0137 333.675 66.9786C333.325 66.5703 332.808 66.4507 332.361 66.2325C331.439 65.789 330.462 65.606 329.421 65.6834C327.5 65.8242 325.6 65.6694 323.903 64.6277C323.163 64.1701 322.436 63.6986 321.821 63.0369C321.235 62.4035 320.739 61.6714 320.005 61.1787C319.866 61.0872 319.803 60.9394 319.761 60.7916C319.53 59.9822 319.125 59.2713 318.608 58.6167C318.315 58.2436 318.294 57.7439 318.057 57.3286C317.68 56.674 317.68 56.66 317.058 57.0893C316.688 57.3497 316.443 57.7228 316.157 58.0466C315.584 58.6941 314.893 59.2361 314.404 59.9681C314.187 60.2989 313.894 60.5805 313.517 60.7494C313.468 60.7705 313.412 60.7987 313.377 60.8409C312.385 62.1078 311.016 62.9032 309.71 63.7901C308.774 64.4235 307.761 64.9092 306.776 65.4301C305.226 66.2465 303.633 67.0701 301.894 67.4149C300.462 67.6965 298.995 67.8021 297.529 67.7176C296.648 67.6683 295.775 67.7528 294.895 67.5487C293.924 67.3305 292.982 67.0137 292.032 66.7111C291.564 66.5633 291.089 66.4436 290.635 66.2395C289.901 65.9157 289.119 65.5145 288.518 64.9725C288.393 64.8599 288.253 64.7473 288.099 64.684C286.723 64.135 285.787 63.051 284.83 62.0023C283.838 60.9183 283.049 59.6795 282.302 58.4126C281.988 57.8776 281.855 57.8424 281.31 58.1169C280.891 58.3351 280.542 58.6167 280.227 58.9897C278.991 60.4819 277.517 61.7489 276.148 63.1214C274.535 64.7332 272.621 65.7679 270.519 66.5562C270.058 66.7252 269.618 66.7604 269.185 66.7885C267.969 66.8589 266.747 66.9222 265.532 66.7181C264.281 66.514 263.192 65.958 262.123 65.3315C261.941 65.2259 261.746 65.0992 261.62 64.9374C260.831 63.9238 259.895 63.0299 259.399 61.777C258.728 60.0666 257.925 58.4126 257.59 56.5896C257.429 55.7168 257.394 54.8299 257.387 53.9501C257.366 52.1975 257.345 50.4378 257.387 48.6852C257.422 47.4042 257.583 46.1302 257.667 44.8492C257.73 43.8004 257.778 42.7517 257.52 41.717C257.31 40.8864 255.907 40.436 255.229 41.0413C254.684 41.5199 254.237 42.0689 254.091 42.8713C253.916 43.8286 253.867 44.7929 253.713 45.7501C253.539 46.7989 253.273 47.8406 253.127 48.8823C252.868 50.7757 252.407 52.6479 252.393 54.5554C252.386 56.2447 252.086 57.8987 252.051 59.581C252.044 60.137 252.093 60.6931 252.093 61.2491C252.093 61.5377 252.093 61.8263 251.967 62.0867C251.611 62.8117 251.478 63.6 251.241 64.3602C250.926 65.3597 250.228 66.1269 249.341 66.514C247.86 67.1616 246.275 67.2882 244.696 66.7604C244.333 66.6407 243.956 66.5633 243.565 66.5844C243.453 66.5844 243.313 66.6055 243.292 66.4507C243.243 66.0987 242.964 65.9791 242.698 65.8383C241.609 65.24 240.785 64.4165 240.442 63.1777C240.428 63.1214 240.414 63.0651 240.379 63.0229C239.583 62.0234 239.583 60.7494 239.248 59.5951C238.906 58.4407 238.717 57.2371 238.584 56.0265C238.431 54.6188 238.515 53.204 238.445 51.7963C238.375 50.297 238.668 48.8119 238.794 47.3268C238.92 45.7571 238.927 44.1875 238.431 42.6672C238.396 42.5546 238.361 42.456 238.249 42.3857C237.558 41.9704 236.342 42.3927 236.077 43.1458C235.93 43.5611 235.742 43.9693 235.784 44.4268C235.798 44.5817 235.742 44.7154 235.602 44.7929C235.364 44.9195 235.267 45.1377 235.204 45.3771C234.91 46.461 234.505 47.5379 234.366 48.643C234.079 50.9094 233.674 53.1547 233.562 55.4493C233.444 57.8213 233.339 60.2074 232.906 62.5513C232.843 62.9032 232.745 63.2481 232.585 63.5719C232.082 64.5784 231.383 65.3526 230.412 65.9931C229.581 66.5351 228.61 66.5914 227.814 67.1052C227.779 67.1264 227.73 67.1404 227.695 67.1334C225.586 66.8167 223.435 66.6829 221.556 65.4653C220.222 64.6065 219.355 63.4311 218.657 62.0304C217.931 60.5805 217.672 59.046 217.407 57.4835C217.232 56.4488 217.169 55.4212 217.155 54.3794C217.155 53.8023 216.96 53.2321 216.988 52.6409C217.016 52.113 216.967 51.5851 217.127 51.0713C217.148 51.0009 217.162 50.9305 217.155 50.8601C216.897 49.009 217.421 47.1789 217.337 45.3278C217.323 45.0251 217.295 44.7295 217.211 44.4409C217.162 44.272 217.078 44.1101 216.883 44.082C216.694 44.0538 216.61 44.2157 216.527 44.3424C215.828 45.37 215.311 46.5032 214.676 47.5661C214.068 48.5796 213.635 49.6917 212.964 50.6701C212.95 50.6912 212.929 50.7194 212.923 50.7405C212.643 51.8244 211.917 52.6831 211.463 53.6897C211.009 54.7032 210.408 55.6464 209.926 56.6529C209.235 58.0958 208.285 59.398 207.677 60.8761C207.188 62.0515 206.455 63.058 205.693 64.0364C205.1 64.8107 204.352 65.4582 203.493 65.9509C203.207 66.1128 202.92 66.2677 202.711 66.5351C202.466 66.8448 202.082 66.8519 201.754 66.9715C200.462 67.4642 199.135 67.8232 197.738 67.8584C197.556 67.8584 197.368 67.8795 197.193 67.8021C197.151 67.788 197.088 67.7528 197.074 67.7669C196.683 68.2103 196.299 67.7598 195.915 67.7669C195.489 67.7669 195.056 67.7458 194.65 67.6191C193.491 67.246 192.38 66.7604 191.465 65.9298C190.697 65.2259 190.027 64.4376 189.545 63.5015C189.265 62.9595 188.853 62.7835 188.322 63.0651C187.526 63.4944 186.821 64.0716 186.108 64.6136C184.998 65.4512 183.775 66.0072 182.525 66.5703C180.793 67.3516 178.97 67.4924 177.112 67.4009C176.267 67.3586 175.512 66.9152 174.695 66.7604C173.543 66.5422 172.663 65.7961 171.671 65.2752C171.112 64.9866 170.539 64.5784 170.19 63.9871C170.134 63.8956 170.057 63.8041 169.959 63.8323C169.575 63.952 169.547 63.6774 169.477 63.4241C169.45 63.3185 169.387 63.2129 169.317 63.1284C167.696 61.228 166.67 59.398 165.797 56.8148C165.615 56.2658 165.461 55.7168 165.377 55.1326C165.21 53.9501 164.895 52.7958 164.728 51.6062C164.504 50.0437 164.616 48.5092 164.798 46.9607C164.84 46.5807 164.868 46.1935 164.896 45.8135C165.07 43.4414 165.664 41.1539 166.258 38.8663C166.502 37.9161 166.67 36.9448 166.921 35.9946C167.054 35.4878 167.291 35.0092 167.501 34.5306C167.766 33.9252 167.997 33.3199 168.199 32.6935C168.388 32.1163 168.66 31.5955 169.023 31.1098C169.701 30.1948 170.434 29.322 171.196 28.4774C171.259 28.407 171.335 28.3296 171.419 28.2803C172.453 27.6116 173.438 26.8092 174.548 26.3165C175.268 25.9927 175.938 25.486 176.77 25.4015C176.951 25.3804 177.119 25.1199 177.286 25.134C177.789 25.1692 178.187 24.8173 178.683 24.8243C179.605 24.8454 180.534 24.8243 181.456 24.8243C181.854 24.8243 182.253 24.8243 182.623 25.0073C182.728 25.0636 182.916 25.1129 182.986 25.0566C183.363 24.7962 183.573 25.0496 183.817 25.2607C184.069 25.486 184.376 25.5845 184.683 25.7041C185.235 25.9223 185.794 26.1405 186.22 26.5769C186.457 26.8162 186.793 26.8796 187.072 27.0415C187.512 27.2949 187.903 27.5694 188.218 27.9776C188.651 28.5407 189.321 28.6815 189.943 28.9278C191.221 29.4487 192.548 29.2023 193.854 29.2657C194.12 29.2798 194.399 29.2235 194.588 29.4909C194.636 29.5613 194.734 29.5683 194.818 29.5683C195.454 29.5824 196.103 29.6598 196.732 29.6035C198.129 29.4768 199.372 29.9907 200.532 30.6101C201.495 31.1239 202.194 32.0248 202.746 32.9891C202.823 33.1228 202.878 33.2847 202.871 33.4396C202.844 34.9177 203.235 36.3888 202.871 37.8669C202.809 38.1203 202.871 38.4088 202.892 38.6763C202.906 38.8804 202.913 39.0705 202.871 39.2746C202.32 41.8226 201.873 44.3917 201.509 46.9748C201.502 47.0311 201.489 47.0874 201.495 47.1438C201.628 48.094 201.209 48.9808 201.195 49.9099C201.174 51.2543 200.811 52.5705 200.895 53.9149C200.937 54.6399 201 55.3648 201.314 56.0406C201.468 56.3714 201.698 56.5614 202.061 56.5896C202.264 56.6036 202.48 56.5684 202.592 56.3854C202.725 56.1743 202.746 55.7942 203.123 56.1743C203.186 56.2376 203.298 56.1109 203.367 56.0406C204.073 55.393 204.743 54.7243 205.093 53.8023C205.128 53.7108 205.19 53.6122 205.267 53.57C205.7 53.3166 205.798 52.8873 205.889 52.4509C205.924 52.2749 205.924 52.106 206.168 52.113C206.259 52.113 206.329 52.0567 206.371 51.9793C207.558 50.1 208.878 48.3051 209.772 46.2569C210.513 44.5747 211.484 43.0191 212.42 41.4425C212.65 41.0483 212.881 40.6542 213.062 40.2318C213.411 39.4294 213.956 38.7397 214.347 37.9654C214.592 37.4797 214.773 37.0011 215.234 36.621C215.647 36.2832 215.961 35.7694 216.198 35.2767C216.583 34.4813 217.19 33.8126 217.532 32.9961C217.588 32.8695 217.679 32.7428 217.791 32.6583C218.273 32.2712 218.685 31.8207 219.097 31.3702C219.474 30.955 219.97 30.7156 220.508 30.6241C220.871 30.5678 221.178 30.3074 221.57 30.3496C221.625 30.3496 221.709 30.2933 221.737 30.237C221.856 30.0259 221.961 29.9695 222.149 30.1807C222.338 30.3848 222.61 30.2722 222.792 30.1948C223.651 29.8358 224.559 29.9907 225.446 29.8992C225.956 29.8429 226.466 29.878 226.983 29.8851C227.367 29.8851 227.744 29.871 228.107 29.688C228.212 29.6317 228.359 29.6247 228.484 29.6247C229.169 29.6247 229.853 29.6387 230.531 29.6247C231.509 29.5895 232.508 30.5326 232.71 31.2717C232.843 31.7574 233.08 32.243 232.808 32.7568C233.213 33.7634 232.508 34.7628 232.794 35.7694C232.871 36.0368 232.878 36.3254 233.22 36.3817C233.548 36.4451 233.814 36.3958 234.023 36.065C234.456 35.3963 234.931 34.7558 235.399 34.1082C236.44 32.6653 237.341 31.0887 238.759 29.9414C238.948 29.7865 239.122 29.6317 239.36 29.5543C239.8 29.4135 240.177 29.1531 240.547 28.8856C241.036 28.5337 241.567 28.2732 242.161 28.1465C242.587 28.055 243.041 28.0128 243.341 27.6187C243.397 27.5412 243.488 27.5271 243.572 27.5835C243.991 27.8509 244.473 27.7946 244.934 27.8087C245.674 27.8298 246.4 27.9354 247.127 28.0199C247.727 28.0902 248.056 28.5407 248.566 28.6744C248.733 28.7167 248.887 28.8504 249.075 28.8645C249.208 28.8786 249.348 28.9278 249.383 29.0616C249.481 29.4628 249.809 29.6528 250.088 29.8851C250.612 30.3144 251.017 30.8494 251.401 31.3984C251.604 31.687 251.807 31.9896 252.086 32.2149C252.191 32.2993 252.247 32.4049 252.268 32.5457C252.351 33.2143 252.568 33.8478 252.722 34.5024C252.791 34.791 252.875 35.0866 253.134 35.2837C253.399 35.4808 253.63 35.5019 254 35.4456C255.075 35.2978 255.397 34.4391 255.934 33.7493C256.598 32.9117 257.206 32.0389 257.806 31.152C258.086 30.7368 258.351 30.3144 258.645 29.9132C259.071 29.322 259.553 28.78 260.209 28.4211C260.412 28.3084 260.579 28.1536 260.712 27.9706C260.775 27.8791 260.866 27.7876 260.97 27.7524C262.004 27.3512 263.003 26.8374 264.156 26.8726C264.826 26.8937 265.497 26.8585 266.16 26.8937C266.789 26.9289 267.445 27.0133 268.032 27.1823C268.703 27.3723 269.303 27.858 269.883 28.2873C270.463 28.7167 271.001 29.2094 271.448 29.7936C271.685 30.1103 271.839 30.4482 271.916 30.8353C272.132 31.9052 272.132 32.975 271.964 34.059C271.797 35.1288 271.769 36.2269 271.545 37.2756C271.371 38.078 271.322 38.9086 271.049 39.6899C271.022 39.7673 270.994 39.8588 270.994 39.9362C271.042 41.5903 270.609 43.1881 270.463 44.821C270.309 46.5666 270.058 48.3122 270.016 50.0577C269.981 51.5147 269.799 52.9999 270.295 54.4287C270.442 54.844 270.498 55.2874 270.581 55.7168C270.714 56.3643 271.161 56.8852 271.524 57.4272C271.748 57.758 272.761 57.8706 273.131 57.7017C273.732 57.4201 274.269 57.0611 274.73 56.5825C275.324 55.9702 276.023 55.4352 276.519 54.7454C277.217 53.7671 277.978 52.8098 278.439 51.6766C278.809 50.7686 279.236 49.8677 279.459 48.9104C279.955 46.7707 280.723 44.7154 281.31 42.6038C281.492 41.9352 281.561 41.2032 282.064 40.6401C282.267 40.4148 282.33 40.077 282.386 39.7673C282.679 38.2047 283.468 36.8603 284.341 35.5723C285.487 33.883 286.8 32.3134 288.323 30.962C288.881 30.4622 289.482 29.9695 290.188 29.6458C290.816 29.3572 291.41 28.9982 292.039 28.7026C292.36 28.5477 292.779 28.6181 293.016 28.2592C293.03 28.238 293.149 28.2521 293.163 28.2803C293.387 28.6181 293.603 28.4562 293.841 28.2803C293.98 28.1747 294.162 28.1888 294.337 28.1888C295.042 28.1888 295.754 28.2029 296.418 27.8932C296.53 27.8439 296.655 27.8368 296.739 27.9213C297.019 28.1817 297.354 28.1677 297.696 28.1888C298.136 28.2169 298.576 28.2944 298.974 28.5055C299.722 28.9138 300.581 29.1038 301.223 29.7021C301.426 29.8921 301.705 29.6387 301.838 29.8006C301.957 29.9414 301.796 30.2229 301.978 30.3989C302.166 30.5749 302.334 30.8001 302.558 30.8986C302.956 31.0746 303.179 31.3913 303.347 31.7574C303.549 32.2008 303.948 32.4753 304.227 32.8554C304.409 33.1088 304.709 32.9821 304.974 32.8835C305.624 32.6372 306.287 32.6231 306.951 32.8413C307.07 32.8835 307.188 32.9398 307.314 32.961C308.096 33.1017 308.781 33.3903 309.389 33.9393C309.829 34.3335 310.346 34.6361 310.737 35.1077C311.1 35.5441 311.372 36.0157 311.554 36.5506C312.155 38.3173 312.343 40.1122 312.043 41.9845C311.819 43.4133 311.449 44.7929 311.009 46.1654C311.009 46.1795 310.995 46.1935 310.995 46.2076C311.121 47.1438 310.443 47.7702 310.108 48.5233C309.906 48.9808 309.64 49.4031 309.542 49.9029C309.521 50.0155 309.458 50.1211 309.361 50.1844C308.984 50.4097 308.697 50.7475 308.488 51.1065C308.124 51.7329 307.51 51.7611 306.923 51.8596C305.952 52.0215 304.981 52.0215 303.996 51.9722C301.971 51.8596 300.895 51.1698 300.301 49.2553C300.078 48.5444 299.945 47.8195 299.952 47.0663C299.966 45.7501 299.952 44.4409 299.952 43.1247C299.952 42.5687 299.952 42.0126 300.029 41.4566C300.092 41.0202 300.106 40.5838 300.078 40.1403C300.022 39.2816 300.071 38.43 300.253 37.5853C300.322 37.2615 300.322 36.9307 300.26 36.607C300.162 36.065 299.673 35.5723 299.163 35.5089C298.499 35.4245 298.087 35.6779 297.766 36.2409C296.753 38.0428 296.404 40.0559 295.873 42.0196C295.552 43.2021 295.496 44.4409 295.063 45.5953C294.902 46.0246 294.86 46.4821 294.881 46.9467C294.902 47.4183 294.853 47.8828 294.728 48.3403C294.574 48.8752 294.532 49.4313 294.539 49.9944C294.553 51.1206 294.539 52.2467 294.539 53.38L294.546 53.3729ZM340.052 54.0627C340.345 54.0205 340.61 54.0064 340.582 53.6333C340.492 52.3664 340.841 51.1135 340.708 49.8325C340.61 48.8682 340.771 47.9039 340.883 46.9326C341.009 45.8698 340.883 44.7999 340.848 43.73C340.806 42.4983 340.548 41.3017 340.296 40.1122C340.087 39.1127 339.521 38.2258 338.69 37.5994C338.068 37.1348 337.3 37.0363 336.629 37.3882C335.812 37.8176 335.113 38.444 334.694 39.3168C334.087 40.5908 333.5 41.8789 333.165 43.2584C332.913 44.3002 332.501 45.3278 332.676 46.4399C332.697 46.5595 332.627 46.6581 332.571 46.7566C332.487 46.9115 332.438 47.0734 332.438 47.2493C332.452 48.6219 332.466 49.9944 332.25 51.3458C332.082 52.4227 332.606 53.387 332.683 54.4287C332.746 55.2382 333.207 55.9913 333.633 56.7022C333.793 56.9696 333.933 57.2442 334.052 57.5327C334.513 58.6378 335.407 59.2854 336.482 59.6443C337.02 59.8273 337.628 59.7851 338.082 59.3346C338.857 58.5604 339.479 57.6735 339.814 56.6248C339.996 56.0687 340.135 55.4986 340.31 54.9425C340.415 54.6047 340.443 54.295 340.045 54.0557L340.052 54.0627ZM189.887 35.8538C189.887 35.516 189.852 35.1922 189.754 34.8755C189.677 34.6361 189.607 34.3828 189.37 34.2279C188.923 33.9393 188.42 33.7985 187.938 33.6085C187.777 33.5452 187.603 33.5029 187.442 33.6085C187.247 33.7422 187.009 33.7422 186.807 33.8197C186.08 34.0871 185.368 34.4461 184.984 35.1359C184.606 35.8116 184.131 36.4099 183.712 37.0504C182.937 38.247 182.308 39.5209 181.645 40.7738C181.435 41.175 181.345 41.6325 181.163 42.0478C180.206 44.1946 179.577 46.4329 179.179 48.7415C178.984 49.8677 179.047 50.9939 179.095 52.1271C179.123 52.8239 179.2 53.5278 179.361 54.2035C179.605 55.2733 180.143 56.1532 181.261 56.5333C181.589 56.6459 181.917 56.6811 182.211 56.4981C182.811 56.125 183.398 55.7238 183.838 55.1396C184.851 53.7952 185.382 52.2256 185.94 50.6701C186.374 49.4665 186.807 48.2559 187.219 47.0382C187.68 45.6868 188.155 44.3494 188.448 42.9417C188.685 41.8155 188.993 40.6964 189.3 39.5913C189.635 38.3525 189.684 37.0926 189.901 35.8468L189.887 35.8538Z" fill="#ADB8CC"/>
</svg>
