<svg width="42" height="36" viewBox="0 0 42 36" fill="none" xmlns="http://www.w3.org/2000/svg">
<path d="M5 7.5C5 3.91015 7.91015 1 11.5 1C15.0899 1 18 3.91015 18 7.5V20.9223" stroke="#8ACF3F" stroke-width="2" stroke-linecap="round" stroke-linejoin="round"/>
<path d="M21.5 1C25.0899 1 28 3.91015 28 7.5V20.9223" stroke="#8ACF3F" stroke-width="2" stroke-linecap="round" stroke-linejoin="round"/>
<path d="M18.0861 7H27.9329" stroke="#8ACF3F" stroke-width="2" stroke-linecap="round" stroke-linejoin="round"/>
<path d="M18 13.5H27.8468" stroke="#8ACF3F" stroke-width="2" stroke-linecap="round" stroke-linejoin="round"/>
<path d="M1 23C3.5 23 3.5 20 6 20C8.5 20 8.5 23 11 23C13.5 23 13.5 20 16 20C18.5 20 18.5 23 21 23C23.5 23 23.5 20 26 20C28.5 20 28.5 23 31 23C33.5 23 33.5 20 36 20C38.5 20 38.5 23 41 23" stroke="#8ACF3F" stroke-width="2" stroke-linecap="round" stroke-linejoin="round"/>
<path d="M1 29C3.5 29 3.5 26 6 26C8.5 26 8.5 29 11 29C13.5 29 13.5 26 16 26C18.5 26 18.5 29 21 29C23.5 29 23.5 26 26 26C28.5 26 28.5 29 31 29C33.5 29 33.5 26 36 26C38.5 26 38.5 29 41 29" stroke="#8ACF3F" stroke-width="2" stroke-linecap="round" stroke-linejoin="round"/>
<path d="M1 35C3.5 35 3.5 32 6 32C8.5 32 8.5 35 11 35C13.5 35 13.5 32 16 32C18.5 32 18.5 35 21 35C23.5 35 23.5 32 26 32C28.5 32 28.5 35 31 35C33.5 35 33.5 32 36 32C38.5 32 38.5 35 41 35" stroke="#8ACF3F" stroke-width="2" stroke-linecap="round" stroke-linejoin="round"/>
</svg>
