<svg width="40" height="38" viewBox="0 0 40 38" fill="none" xmlns="http://www.w3.org/2000/svg">
<path d="M1 36.5H38.181" stroke="#8ACF3F" stroke-width="2" stroke-linecap="round" stroke-linejoin="round"/>
<rect x="5" y="15" width="30" height="17" rx="8.5" stroke="#8ACF3F" stroke-width="2" stroke-linecap="round" stroke-linejoin="round"/>
<rect x="6" y="4" width="11" height="4" rx="2" stroke="#8ACF3F" stroke-width="2" stroke-linecap="round" stroke-linejoin="round"/>
<rect x="10" y="20" width="7" height="7" rx="3.5" stroke="#8ACF3F" stroke-width="2" stroke-linecap="round" stroke-linejoin="round"/>
<path d="M13.5 23.5L21.108 27.9192" stroke="#8ACF3F" stroke-width="2" stroke-linecap="round" stroke-linejoin="round"/>
<path d="M27 19.5H22" stroke="#8ACF3F" stroke-width="2" stroke-linecap="round" stroke-linejoin="round"/>
<path d="M19 28H23" stroke="#8ACF3F" stroke-width="2" stroke-linecap="round" stroke-linejoin="round"/>
<path d="M28.0538 15L30.4888 7.27002C30.7511 6.43727 31.5233 5.87093 32.3964 5.87093H33.7834C34.3873 5.87093 34.9589 5.59804 35.3386 5.12844L36.6424 3.51597C37.1445 2.89503 37.0481 1.98464 36.4272 1.48256C36.1699 1.27451 35.849 1.16101 35.5181 1.16101H26.6205" stroke="#8ACF3F" stroke-width="2" stroke-linecap="round" stroke-linejoin="round"/>
<path d="M14.6353 15L11.2873 7.97595" stroke="#8ACF3F" stroke-width="2" stroke-linecap="round" stroke-linejoin="round"/>
</svg>
