<svg width="32" height="39" viewBox="0 0 32 39" fill="none" xmlns="http://www.w3.org/2000/svg">
<path d="M10.2456 30C10.2456 30 10.0591 34.5089 11.7396 36C13.4202 37.4911 17.4038 37.1341 20.1426 37.1341C22.8813 37.1341 26.4297 37.1176 26.9274 34.5656C27.4251 32.0136 27.6741 28 27.6741 28" stroke="#8ACF3F" stroke-width="2" stroke-linecap="round" stroke-linejoin="round"/>
<path d="M8.25401 21.5566C8.25401 21.5566 6.32445 16.5149 6.32445 11.4109C6.32445 6.30691 6.45216 3.47733 10.0001 2.60592C13.548 1.73451 18.6294 1.99996 22.0001 1.99996C25.3707 1.99996 29.8526 3.46044 30.2883 6.99996C30.724 10.5395 30.8485 20.5219 29.9148 23C28.9812 25.478 28.0475 29.9145 22.1966 30.4573C16.3457 31 11.6769 31.7668 7.25786 28C2.8388 24.2331 2.09236 21.2644 1.46968 18.3822C0.846999 15.5 1.59392 13.6554 3.02553 13C4.45714 12.3446 6.32445 12.5935 6.32445 12.5935" stroke="#8ACF3F" stroke-width="2" stroke-linecap="round" stroke-linejoin="round"/>
</svg>
