<svg width="103" height="18" viewBox="0 0 103 18" fill="none" xmlns="http://www.w3.org/2000/svg">
<path fill-rule="evenodd" clip-rule="evenodd" d="M90.4827 6.98511L93.5837 3.67394C93.7635 3.43086 93.8529 3.26064 93.8529 3.1149C93.8529 2.87181 93.6438 2.77447 92.9864 2.77447H92.2039V0.684048H100.673V2.77447H99.5603C98.2752 2.77447 98.0364 2.96862 96.2433 5.22926L91.3374 10.5271V13.7601C91.3374 14.5872 91.755 14.8782 92.9507 14.8782H94.8029V16.8952H82.9406V14.8782H84.7928C85.9874 14.8782 86.4061 14.5872 86.4061 13.7601V10.5271L80.6279 4.13511C79.6731 3.01756 79.805 2.77447 77.1465 2.77447V0.684048H87.8742V2.77447H87.1103C86.3332 2.77447 86.0039 2.92022 86.0039 3.21171C86.0039 3.45532 86.2428 3.64947 86.3922 3.84362L89.3156 7.02979C89.663 7.39096 90.0869 7.43777 90.4827 6.98511ZM18.5055 0.683516H21.0933V6.51649H18.7034C18.4917 5.35054 17.7619 4.89681 17.0965 4.28511C15.896 3.18192 13.296 2.2633 11.1093 2.2633C8.28692 2.2633 5.90501 3.13883 5.90501 4.42607C5.90501 7.99947 22.046 5.15586 22.046 11.9122C22.046 15.4362 18.5885 17.4048 12.3795 17.4048C10.23 17.4048 6.97735 16.7378 5.0582 15.7186C4.4566 15.3713 4.20128 16.0473 4.08852 16.8947H1.43532V10.867H3.83532C4.36458 12.3984 5.09384 12.7138 5.76458 13.3218C6.92841 14.3915 9.69862 15.1697 12.239 15.1447C16.0694 15.1069 17.3864 14.2697 17.3864 13.0543C17.3864 11.8394 16.0837 11.5473 11.8864 10.8915L8.32256 10.308C4.30075 9.7 1.37256 8.80107 1.37256 5.59309C1.37256 2.2633 5.07681 0.172878 10.9337 0.172878C13.4018 0.172878 15.4667 0.502665 17.4486 1.62288C17.9976 1.97979 18.5125 2.02235 18.5055 0.683516ZM69.0077 10.4495L69.0587 3.96649C69.0587 3.11596 68.6162 2.82447 67.3518 2.82447H65.8662V0.807452H75.3183V2.82447H74.0864C72.821 2.82447 72.3784 3.11649 72.3784 3.96649V17.0181L68.6789 16.9888L56.6981 5.64362V13.883C56.6981 14.7096 57.1406 15.025 58.405 15.025H60.0497V17.0181H50.2332V15.025H51.8598C53.1242 15.025 53.5667 14.709 53.5667 13.883V3.96649C53.5667 3.11596 53.1242 2.82447 51.8598 2.82447H50.2332V0.807452H58.7204L69.0077 10.4495ZM37.3465 0.0505371C29.8135 0.0505371 25.0981 3.38086 25.0981 8.72713C25.0981 13.9777 29.7481 17.2825 37.1167 17.2825C44.9433 17.2825 49.496 14.0261 49.496 8.46011C49.4965 3.45373 44.5837 0.0505371 37.3465 0.0505371ZM37.1752 15.1686C33.0055 15.1686 30.6087 12.7622 30.6087 8.60586C30.6087 4.54735 33.1098 2.14096 37.3837 2.14096C41.4837 2.14096 43.8805 4.59628 43.8805 8.7766C43.8805 12.8596 41.4486 15.1686 37.1752 15.1686Z" fill="#ADB8CC"/>
</svg>
