<svg width="20" height="20" viewBox="0 0 20 20" fill="none" xmlns="http://www.w3.org/2000/svg">
<path fill-rule="evenodd" clip-rule="evenodd" d="M10 0C4.48 0 0 4.48 0 10C0 15.52 4.48 20 10 20C15.52 20 20 15.52 20 10C20 4.48 15.52 0 10 0ZM10 3C11.66 3 13 4.34 13 6C13 7.66 11.66 9 10 9C8.34 9 7 7.66 7 6C7 4.34 8.34 3 10 3ZM10 17.2004C7.5 17.2004 5.29 15.9204 4 13.9804C4.03 11.9904 8 10.9004 10 10.9004C11.99 10.9004 15.97 11.9904 16 13.9804C14.71 15.9204 12.5 17.2004 10 17.2004Z" fill="#C3CAD9"/>
</svg>
